<svg width="101" height="36" viewBox="0 0 101 36" fill="none" xmlns="http://www.w3.org/2000/svg">
<path d="M88.5401 36C84.9075 36 82.0045 34.9289 79.8312 32.7866C77.6889 30.6132 76.6177 27.555 76.6177 23.612C76.6177 21.1902 77.1145 19.0635 78.108 17.2317C79.1016 15.3998 80.4832 13.9716 82.2529 12.9471C84.0537 11.8914 86.1494 11.3636 88.5401 11.3636C91.2103 11.3636 93.4302 11.8914 95.1999 12.9471C96.9696 13.9716 98.2892 15.3998 99.1585 17.2317C100.059 19.0635 100.509 21.1902 100.509 23.612C100.509 27.555 99.5156 30.6132 97.5285 32.7866C95.5725 34.9289 92.5764 36 88.5401 36ZM82.1598 22.8202C82.1598 23.7827 82.641 24.4658 83.6035 24.8694C84.566 25.242 86.2115 25.4283 88.5401 25.4283C90.8687 25.4283 92.5143 25.242 93.4768 24.8694C94.4392 24.4658 94.9205 23.7827 94.9205 22.8202C94.9205 21.8888 94.4392 21.2368 93.4768 20.8642C92.5143 20.4917 90.8687 20.3054 88.5401 20.3054C86.2115 20.3054 84.566 20.4917 83.6035 20.8642C82.641 21.2368 82.1598 21.8888 82.1598 22.8202Z" fill="#333333"/>
<path d="M66.4448 35.9067C64.8924 35.9067 63.6349 35.5807 62.6724 34.9287C61.741 34.2767 61.058 33.4229 60.6233 32.3672C60.1886 31.2806 59.9402 30.1163 59.8781 28.8744H58.9933V31.4824C58.9933 32.7553 58.6052 33.811 57.829 34.6493C57.0528 35.4875 55.9816 35.9067 54.6155 35.9067C53.1873 35.9067 52.1006 35.4875 51.3555 34.6493C50.6414 33.811 50.2843 32.7553 50.2843 31.4824V4.65716C50.2843 3.32211 50.6414 2.21991 51.3555 1.35057C52.0696 0.450192 53.1563 0 54.6155 0C56.0748 0 57.1614 0.450192 57.8755 1.35057C58.6207 2.21991 58.9933 3.29106 58.9933 4.56401V18.6752L59.1796 18.7218C59.49 17.4178 59.8781 16.2224 60.3439 15.1358C60.8406 14.0491 61.5702 13.1798 62.5327 12.5278C63.4952 11.8758 64.8303 11.5498 66.5379 11.5498C69.177 11.5498 71.1951 12.6364 72.5923 14.8098C73.9894 16.9521 74.688 19.824 74.688 23.4255C74.688 27.5549 73.9739 30.6751 72.5457 32.7864C71.1485 34.8666 69.1149 35.9067 66.4448 35.9067ZM58.9001 23.0529C58.9001 23.2082 58.9001 23.3634 58.9001 23.5186C58.9312 23.6428 58.9622 23.7826 58.9933 23.9378C59.1485 24.5898 59.5211 25.0866 60.111 25.4281C60.732 25.7386 61.6944 25.8938 62.9985 25.8938C64.5508 25.8938 65.6065 25.6609 66.1653 25.1952C66.7553 24.7295 67.0502 24.0154 67.0502 23.0529C67.0502 22.0594 66.7708 21.3298 66.2119 20.8641C65.6531 20.3984 64.5974 20.1655 63.045 20.1655C61.71 20.1655 60.732 20.3363 60.111 20.6778C59.5211 20.9883 59.1485 21.485 58.9933 22.1681C58.9622 22.2923 58.9312 22.432 58.9001 22.5872C58.9001 22.7114 58.9001 22.8666 58.9001 23.0529Z" fill="#333333"/>
<path d="M38.5661 6.14767C38.5661 4.81262 38.9697 3.74147 39.7769 2.93423C40.6152 2.09594 41.764 1.6768 43.2233 1.6768C44.7757 1.6768 45.9244 2.08042 46.6696 2.88766C47.4458 3.6949 47.8339 4.76605 47.8339 6.1011C47.8339 7.4051 47.4458 8.46072 46.6696 9.26796C45.9244 10.0442 44.7757 10.4323 43.2233 10.4323C41.7019 10.4323 40.5376 10.0442 39.7304 9.26796C38.9542 8.46072 38.5661 7.42062 38.5661 6.14767ZM43.2233 35.9069C41.764 35.9069 40.6773 35.5033 39.9632 34.696C39.2491 33.8888 38.8921 32.8798 38.8921 31.6689V15.7414C38.8921 14.4064 39.2491 13.3507 39.9632 12.5745C40.6773 11.7984 41.764 11.4103 43.2233 11.4103C44.6825 11.4103 45.7692 11.7984 46.4833 12.5745C47.2284 13.3507 47.601 14.3753 47.601 15.6483V31.6689C47.601 32.8798 47.2129 33.8888 46.4367 34.696C45.6916 35.5033 44.6204 35.9069 43.2233 35.9069Z" fill="#333333"/>
<path d="M11.3524 35.9065C9.55158 35.9065 8.07681 35.3166 6.92803 34.1368C5.81031 32.957 4.78573 31.0165 3.85429 28.3153L0.314828 17.7901C-0.088795 16.6103 -0.104323 15.415 0.268252 14.2041C0.640828 12.9933 1.49465 12.1705 2.82971 11.7358C4.07162 11.3012 5.20487 11.3322 6.22945 11.829C7.25404 12.3257 7.96815 13.1796 8.37177 14.3904L12.1907 25.8005C12.6253 27.1355 13.0755 28.0359 13.5413 28.5016C14.007 28.9363 14.6279 29.0294 15.4041 28.781C16.0561 28.5637 16.4598 28.098 16.615 27.3839C16.8013 26.6387 16.5839 25.3658 15.963 23.565L14.0535 17.7901C13.6499 16.5793 13.6344 15.384 14.007 14.2041C14.4106 12.9933 15.2799 12.1705 16.615 11.7358C17.8569 11.3012 18.9902 11.3322 20.0147 11.829C21.0393 12.3257 21.7534 13.1796 22.157 14.3904L26.0691 26.3127C26.3175 27.0268 26.7056 27.6788 27.2334 28.2688C27.7612 28.8587 28.4443 29.0294 29.2826 28.781C29.9346 28.5637 30.3537 28.129 30.54 27.477C30.7573 26.825 30.7263 26.0644 30.4469 25.195C30.0743 24.0152 29.6551 23.0838 29.1894 22.4007C28.7547 21.7177 28.3201 21.1278 27.8854 20.631C27.4818 20.1343 27.1403 19.6064 26.8608 19.0476C26.6124 18.4887 26.4572 17.7281 26.3951 16.7656C26.333 15.772 26.5348 14.9027 27.0005 14.1576C27.4973 13.3814 28.1493 12.7759 28.9566 12.3413C29.7949 11.9066 30.7108 11.6893 31.7043 11.6893C33.2257 11.6893 34.452 12.2016 35.3835 13.2261C36.346 14.2197 36.8272 15.3995 36.8272 16.7656C36.8272 17.2623 36.7496 17.9143 36.5943 18.7216C36.4391 19.5288 36.2373 20.274 35.9889 20.957L34.0329 26.0333C33.6293 27.151 33.1635 28.2998 32.6357 29.4796C32.139 30.6284 31.549 31.684 30.866 32.6465C30.214 33.609 29.4533 34.4007 28.584 35.0216C27.7146 35.6115 26.7056 35.9065 25.5568 35.9065C23.5697 35.9065 21.9708 35.3942 20.7599 34.3696C19.5801 33.3451 18.6486 31.653 17.9656 29.2933H17.4999C17.0962 31.2183 16.4287 32.8017 15.4973 34.0436C14.5658 35.2855 13.1842 35.9065 11.3524 35.9065Z" fill="#333333"/>
</svg>


