<svg width="336" height="414" viewBox="0 0 336 414" fill="none" xmlns="http://www.w3.org/2000/svg">
<g clip-path="url(#clip0_634_350451)">
<g filter="url(#filter0_dd_634_350451)">
<path d="M-10 263C-10 258.582 -6.41828 255 -2 255H82C86.4183 255 90 258.582 90 263V347C90 351.418 86.4183 355 82 355H-2C-6.41828 355 -10 351.418 -10 347V263Z" fill="#A8DAFF"/>
<path d="M2 295C2 291.686 4.68629 289 8 289H72C75.3137 289 78 291.686 78 295C78 298.314 75.3137 301 72 301H8C4.68629 301 2 298.314 2 295Z" fill="black" fill-opacity="0.1"/>
<path d="M2 315C2 311.686 4.68629 309 8 309H32C35.3137 309 38 311.686 38 315C38 318.314 35.3137 321 32 321H8C4.68629 321 2 318.314 2 315Z" fill="black" fill-opacity="0.1"/>
</g>
<g filter="url(#filter1_dd_634_350451)">
<path d="M43 191C43 186.582 46.5817 183 51 183H135C139.418 183 143 186.582 143 191V275C143 279.418 139.418 283 135 283H51C46.5817 283 43 279.418 43 275V191Z" fill="#FFE5CC"/>
<path d="M55 213C55 209.686 57.6863 207 61 207H125C128.314 207 131 209.686 131 213C131 216.314 128.314 219 125 219H61C57.6863 219 55 216.314 55 213Z" fill="black" fill-opacity="0.1"/>
<path d="M55 233C55 229.686 57.6863 227 61 227H125C128.314 227 131 229.686 131 233C131 236.314 128.314 239 125 239H61C57.6863 239 55 236.314 55 233Z" fill="black" fill-opacity="0.1"/>
<path d="M55 253C55 249.686 57.6863 247 61 247H85C88.3137 247 91 249.686 91 253C91 256.314 88.3137 259 85 259H61C57.6863 259 55 256.314 55 253Z" fill="black" fill-opacity="0.1"/>
</g>
<g filter="url(#filter2_dd_634_350451)">
<path d="M158 154C158 149.582 161.582 146 166 146H250C254.418 146 258 149.582 258 154V238C258 242.418 254.418 246 250 246H166C161.582 246 158 242.418 158 238V154Z" fill="#F4FFF6"/>
<path d="M170 186C170 182.686 172.686 180 176 180H240C243.314 180 246 182.686 246 186C246 189.314 243.314 192 240 192H176C172.686 192 170 189.314 170 186Z" fill="black" fill-opacity="0.1"/>
<path d="M170 206C170 202.686 172.686 200 176 200H232C235.314 200 238 202.686 238 206C238 209.314 235.314 212 232 212H176C172.686 212 170 209.314 170 206Z" fill="black" fill-opacity="0.1"/>
</g>
<g filter="url(#filter3_dd_634_350451)">
<path d="M82 338C82 333.582 85.5817 330 90 330H174C178.418 330 182 333.582 182 338V422C182 426.418 178.418 430 174 430H90C85.5817 430 82 426.418 82 422V338Z" fill="#D3BDFF"/>
<path d="M94 360C94 356.686 96.6863 354 100 354H156C159.314 354 162 356.686 162 360C162 363.314 159.314 366 156 366H100C96.6863 366 94 363.314 94 360Z" fill="black" fill-opacity="0.1"/>
<path d="M94 380C94 376.686 96.6863 374 100 374H164C167.314 374 170 376.686 170 380C170 383.314 167.314 386 164 386H100C96.6863 386 94 383.314 94 380Z" fill="black" fill-opacity="0.1"/>
<path d="M94 400C94 396.686 96.6863 394 100 394H124C127.314 394 130 396.686 130 400C130 403.314 127.314 406 124 406H100C96.6863 406 94 403.314 94 400Z" fill="black" fill-opacity="0.1"/>
</g>
<path d="M224.969 86.5284C224.745 86.5284 224.545 86.4404 224.369 86.2644C224.209 86.0724 224.129 85.7284 224.129 85.2324C224.129 84.8804 224.193 84.3284 224.321 83.5764C224.449 82.8244 224.625 81.9604 224.849 80.9844C225.089 79.9924 225.361 78.9604 225.665 77.8884C225.969 76.8004 226.297 75.7364 226.649 74.6964C227.001 73.6404 227.361 72.6884 227.729 71.8404C227.905 71.4244 228.177 71.1124 228.545 70.9044C228.929 70.6804 229.345 70.5684 229.793 70.5684C230.257 70.5684 230.593 70.7844 230.801 71.2164C231.009 71.6484 231.113 72.1204 231.113 72.6324C231.113 72.8244 231.017 73.1844 230.825 73.7124C230.649 74.2404 230.409 74.8804 230.105 75.6324C229.801 76.3844 229.465 77.2004 229.097 78.0804C228.745 78.9444 228.385 79.8244 228.017 80.7204C227.665 81.6004 227.337 82.4404 227.033 83.2404C226.729 84.0404 226.481 84.7444 226.289 85.3524C226.161 85.7844 225.985 86.0884 225.761 86.2644C225.553 86.4404 225.289 86.5284 224.969 86.5284ZM223.721 93.2244C223.529 93.2244 223.305 93.1764 223.049 93.0804C222.793 92.9844 222.569 92.7524 222.377 92.3844C222.201 92.0324 222.113 91.4644 222.113 90.6804C222.113 90.0724 222.305 89.6084 222.689 89.2884C223.073 88.9684 223.585 88.8084 224.225 88.8084C224.769 88.8084 225.185 88.9604 225.473 89.2644C225.777 89.5684 225.929 90.0004 225.929 90.5604C225.929 91.0724 225.801 91.5284 225.545 91.9284C225.305 92.3284 225.009 92.6404 224.657 92.8644C224.321 93.1044 224.009 93.2244 223.721 93.2244Z" fill="#333333"/>
<path d="M215.05 79.1601C215.93 77.0641 216.706 74.9041 217.378 72.6801C217.506 72.2321 217.69 71.8881 217.93 71.6481C218.186 71.4081 218.538 71.2881 218.986 71.2881C219.354 71.2881 219.634 71.4001 219.826 71.6241C220.018 71.8321 220.114 72.1201 220.114 72.4881C220.114 72.7921 219.986 73.3361 219.73 74.1201C219.474 74.8881 219.162 75.8641 218.794 77.0481C218.426 78.2321 218.058 79.6001 217.69 81.1521C217.322 82.7041 217.01 84.4081 216.754 86.2641C216.498 88.1201 216.37 90.1041 216.37 92.2161C216.37 92.7921 216.258 93.2641 216.034 93.6321C215.826 94.0161 215.458 94.2081 214.93 94.2081C214.354 94.2081 213.93 94.0081 213.658 93.6081C213.402 93.2081 213.274 92.6961 213.274 92.0721C213.274 90.8401 213.314 89.8161 213.394 89.0001C213.49 88.1681 213.586 87.4561 213.682 86.8641C212.898 88.2081 212.066 89.3681 211.186 90.3441C210.322 91.3041 209.49 92.0401 208.69 92.5521C207.89 93.0801 207.202 93.3441 206.626 93.3441C205.682 93.3441 204.914 93.0801 204.322 92.5521C203.73 92.0241 203.434 91.2241 203.434 90.1521C203.434 89.3201 203.634 88.4641 204.034 87.5841C204.434 86.6881 204.962 85.8081 205.618 84.9441C206.274 84.0801 206.994 83.2721 207.778 82.5201C208.578 81.7521 209.378 81.0801 210.178 80.5041C210.978 79.9121 211.722 79.4481 212.41 79.1121C213.098 78.7761 213.658 78.6081 214.09 78.6081C214.57 78.6081 214.89 78.7921 215.05 79.1601ZM214.498 80.4561C214.402 80.5201 214.298 80.5841 214.186 80.6481C214.09 80.6961 213.994 80.7521 213.898 80.8161C213.29 81.2001 212.642 81.6641 211.954 82.2081C211.266 82.7361 210.586 83.3281 209.914 83.9841C209.242 84.6241 208.626 85.2961 208.066 86.0001C207.522 86.6881 207.082 87.3761 206.746 88.0641C206.426 88.7361 206.266 89.3841 206.266 90.0081C206.266 90.1201 206.314 90.2001 206.41 90.2481C206.506 90.2961 206.594 90.3201 206.674 90.3201C207.234 90.3201 207.834 90.0721 208.474 89.5761C209.13 89.0801 209.794 88.3921 210.466 87.5121C211.154 86.6161 211.834 85.5681 212.506 84.3681C213.194 83.1681 213.858 81.8641 214.498 80.4561Z" fill="#333333"/>
<path d="M198.459 93.0801C198.091 93.0801 197.755 92.9281 197.451 92.6241C197.163 92.3361 197.019 91.8481 197.019 91.1601C197.019 90.6481 197.059 89.9361 197.139 89.0241C197.235 88.0961 197.411 86.9041 197.667 85.4481C197.107 86.6001 196.523 87.6241 195.915 88.5201C195.307 89.4161 194.707 90.1201 194.115 90.6321C193.539 91.1281 192.987 91.3761 192.459 91.3761C191.611 91.3761 190.939 91.1201 190.443 90.6081C189.947 90.0801 189.699 89.0961 189.699 87.6561C189.699 86.9681 189.755 86.1921 189.867 85.3281C189.995 84.4641 190.155 83.6001 190.347 82.7361C190.539 81.8721 190.731 81.1041 190.923 80.4321C191.131 79.7441 191.315 79.2321 191.475 78.8961C191.603 78.6081 191.763 78.3841 191.955 78.2241C192.163 78.0641 192.427 77.9841 192.747 77.9841C193.259 77.9841 193.651 78.1521 193.923 78.4881C194.195 78.8241 194.331 79.1681 194.331 79.5201C194.331 79.7921 194.267 80.1841 194.139 80.6961C194.027 81.2081 193.883 81.7761 193.707 82.4001C193.547 83.0241 193.379 83.6641 193.203 84.3201C193.027 84.9761 192.875 85.5921 192.747 86.1681C192.635 86.7441 192.579 87.2321 192.579 87.6321C192.579 88.1281 192.771 88.3761 193.155 88.3761C193.379 88.3761 193.667 88.1601 194.019 87.7281C194.387 87.2961 194.771 86.7201 195.171 86.0001C195.587 85.2641 196.003 84.4641 196.419 83.6001C196.851 82.7201 197.243 81.8321 197.595 80.9361C197.963 80.0241 198.275 79.1841 198.531 78.4161C198.691 77.9361 198.907 77.6001 199.179 77.4081C199.451 77.2161 199.763 77.1201 200.115 77.1201C200.659 77.1201 201.075 77.2721 201.363 77.5761C201.667 77.8801 201.819 78.3121 201.819 78.8721C201.819 79.1281 201.779 79.5601 201.699 80.1681C201.619 80.7761 201.515 81.4881 201.387 82.3041C201.275 83.1201 201.139 83.9841 200.979 84.8961C200.819 85.8081 200.659 86.7041 200.499 87.5841C200.355 88.4641 200.211 89.2721 200.067 90.0081C199.923 90.7281 199.803 91.3041 199.707 91.7361C199.547 92.3761 199.355 92.7601 199.131 92.8881C198.907 93.0161 198.683 93.0801 198.459 93.0801Z" fill="#333333"/>
<path d="M179.007 92.7918C177.871 92.7918 176.959 92.3918 176.271 91.5918C175.583 90.7758 175.239 89.6878 175.239 88.3278C175.239 87.8958 175.295 87.4558 175.407 87.0078C175.535 86.5598 175.687 86.1438 175.863 85.7598C175.767 85.6158 175.687 85.4318 175.623 85.2078C175.575 84.9678 175.551 84.6878 175.551 84.3678C175.551 83.3278 175.735 82.3758 176.103 81.5118C176.471 80.6318 176.967 79.8718 177.591 79.2318C178.215 78.5918 178.903 78.0958 179.655 77.7438C180.407 77.3918 181.167 77.2158 181.935 77.2158C183.247 77.2158 184.319 77.6558 185.151 78.5358C185.999 79.4158 186.423 80.7838 186.423 82.6398C186.423 83.5678 186.279 84.5118 185.991 85.4718C185.703 86.4318 185.311 87.3518 184.815 88.2318C184.335 89.0958 183.775 89.8718 183.135 90.5598C182.511 91.2478 181.839 91.7918 181.119 92.1918C180.415 92.5918 179.711 92.7918 179.007 92.7918ZM178.623 84.6798C178.703 84.8558 178.743 85.0638 178.743 85.3038C178.743 85.5438 178.695 85.7918 178.599 86.0478C178.503 86.3038 178.407 86.6478 178.311 87.0798C178.215 87.4958 178.167 88.0958 178.167 88.8798C178.167 89.0878 178.191 89.2638 178.239 89.4078C178.303 89.5358 178.439 89.5998 178.647 89.5998C179.191 89.5998 179.703 89.4238 180.183 89.0718C180.679 88.7198 181.119 88.2558 181.503 87.6798C181.903 87.1038 182.239 86.4638 182.511 85.7598C182.799 85.0398 183.015 84.3118 183.159 83.5758C183.319 82.8238 183.399 82.1278 183.399 81.4878C183.399 81.0718 183.319 80.7838 183.159 80.6238C182.999 80.4638 182.719 80.3838 182.319 80.3838C181.775 80.3838 181.215 80.5598 180.639 80.9118C180.079 81.2478 179.607 81.7118 179.223 82.3038C178.839 82.8798 178.647 83.5358 178.647 84.2718C178.647 84.4158 178.639 84.5518 178.623 84.6798Z" fill="#333333"/>
<path d="M167.282 93.2004C165.842 93.2004 164.706 92.7604 163.874 91.8804C163.058 90.9844 162.65 89.7124 162.65 88.0644C162.65 87.1684 162.77 86.1204 163.01 84.9204C163.25 83.7044 163.562 82.4244 163.946 81.0804C164.346 79.7204 164.77 78.3764 165.218 77.0484C165.682 75.7204 166.138 74.4884 166.586 73.3524C167.034 72.2164 167.426 71.2644 167.762 70.4964C168.05 69.9044 168.458 69.6084 168.986 69.6084C169.322 69.6084 169.594 69.7124 169.802 69.9204C170.026 70.1284 170.138 70.4644 170.138 70.9284C170.138 71.1524 170.026 71.6404 169.802 72.3924C169.578 73.1444 169.282 74.0724 168.914 75.1764C168.562 76.2644 168.178 77.4404 167.762 78.7044C167.362 79.9684 166.978 81.2404 166.61 82.5204C166.258 83.8004 165.97 85.0084 165.746 86.1444C165.522 87.2644 165.41 88.2164 165.41 89.0004C165.41 89.3204 165.498 89.5764 165.674 89.7684C165.866 89.9604 166.114 90.0564 166.418 90.0564C167.074 90.0564 167.746 89.9364 168.434 89.6964C169.138 89.4564 169.826 89.1524 170.498 88.7844C171.186 88.4164 171.834 88.0244 172.442 87.6084C173.05 87.1924 173.594 86.8004 174.074 86.4324C174.57 86.0484 174.97 85.7444 175.274 85.5204C175.674 85.2164 175.946 85.0644 176.09 85.0644C176.634 85.0644 176.906 85.3284 176.906 85.8564C176.906 85.9844 176.746 86.2484 176.426 86.6484C176.154 87.0004 175.77 87.4484 175.274 87.9924C174.778 88.5364 174.202 89.1124 173.546 89.7204C172.906 90.3124 172.218 90.8724 171.482 91.4004C170.762 91.9284 170.042 92.3604 169.322 92.6964C168.602 93.0324 167.922 93.2004 167.282 93.2004Z" fill="#333333"/>
<path d="M145.223 92.9117C144.711 92.9117 144.247 92.7677 143.831 92.4797C143.415 92.2077 143.087 91.8477 142.847 91.3997C142.607 90.9357 142.487 90.4397 142.487 89.9117C142.487 88.9197 142.703 87.9517 143.135 87.0077C143.583 86.0637 144.167 85.1677 144.887 84.3197C145.607 83.4717 146.391 82.6957 147.239 81.9917C148.103 81.2717 148.959 80.6557 149.807 80.1437C150.671 79.6317 151.455 79.2317 152.159 78.9437C152.879 78.6557 153.439 78.5117 153.839 78.5117C154.303 78.5117 154.679 78.6157 154.967 78.8237C155.271 79.0157 155.423 79.3197 155.423 79.7357C155.423 79.8637 155.391 79.9677 155.327 80.0477C155.535 80.0957 155.703 80.2157 155.831 80.4077C155.959 80.5997 156.023 80.8877 156.023 81.2717C156.023 81.4317 155.983 81.8477 155.903 82.5197C155.823 83.1917 155.735 84.0077 155.639 84.9677C155.559 85.9277 155.519 86.9277 155.519 87.9677C155.519 88.1277 155.543 88.2717 155.591 88.3997C155.639 88.5117 155.743 88.5677 155.903 88.5677C156.543 88.5677 157.191 88.4397 157.847 88.1837C158.519 87.9117 159.167 87.5837 159.791 87.1997C160.431 86.7997 161.007 86.4077 161.519 86.0237C162.047 85.6237 162.487 85.2957 162.839 85.0397C163.207 84.7677 163.447 84.6317 163.559 84.6317C164.103 84.6317 164.375 84.9037 164.375 85.4477C164.375 85.5917 164.199 85.8957 163.847 86.3597C163.511 86.8077 163.047 87.3277 162.455 87.9197C161.863 88.4957 161.199 89.0717 160.463 89.6477C159.743 90.2077 158.991 90.6717 158.207 91.0397C157.439 91.4077 156.695 91.5917 155.975 91.5917C155.095 91.5917 154.423 91.3837 153.959 90.9677C153.511 90.5517 153.191 89.9917 152.999 89.2877C152.823 88.5677 152.727 87.7597 152.711 86.8637C151.895 88.0317 151.047 89.0717 150.167 89.9837C149.303 90.8797 148.447 91.5917 147.599 92.1197C146.751 92.6477 145.959 92.9117 145.223 92.9117ZM153.719 80.8877C152.151 81.6397 150.743 82.5037 149.495 83.4797C148.247 84.4397 147.255 85.4477 146.519 86.5037C145.799 87.5597 145.439 88.5757 145.439 89.5517C145.439 89.8237 145.567 89.9597 145.823 89.9597C146.127 89.9597 146.527 89.7837 147.023 89.4317C147.535 89.0797 148.087 88.6157 148.679 88.0397C149.271 87.4477 149.863 86.7917 150.455 86.0717C151.047 85.3357 151.599 84.5837 152.111 83.8157C152.623 83.0477 153.031 82.3117 153.335 81.6077C153.447 81.3517 153.575 81.1117 153.719 80.8877Z" fill="#333333"/>
<path d="M124.09 93.752C123.002 93.752 121.994 93.52 121.066 93.056C120.138 92.608 119.29 92.016 118.522 91.28C117.754 90.528 117.066 89.712 116.458 88.832C115.866 87.936 115.362 87.056 114.946 86.192C114.754 87.072 114.578 87.824 114.418 88.448C114.274 89.072 114.154 89.592 114.058 90.008C113.978 90.328 113.89 90.64 113.794 90.944C113.714 91.248 113.586 91.496 113.41 91.688C113.234 91.88 112.986 91.976 112.666 91.976C111.978 91.976 111.538 91.744 111.346 91.28C111.154 90.8 111.058 90.192 111.058 89.456C111.058 88.8 111.162 87.936 111.37 86.864C111.594 85.792 111.89 84.592 112.258 83.264C112.626 81.936 113.05 80.568 113.53 79.16C114.026 77.736 114.554 76.352 115.114 75.008C115.674 73.648 116.234 72.416 116.794 71.312C117.146 70.64 117.458 70.216 117.73 70.04C118.002 69.848 118.322 69.752 118.69 69.752C119.058 69.752 119.338 69.848 119.53 70.04C119.722 70.232 119.818 70.488 119.818 70.808C119.818 71.016 119.77 71.224 119.674 71.432C119.578 71.64 119.474 71.896 119.362 72.2C118.994 73.016 118.61 73.968 118.21 75.056C117.81 76.128 117.426 77.24 117.058 78.392C116.69 79.528 116.362 80.608 116.074 81.632C116.858 81.168 117.73 80.72 118.69 80.288C119.65 79.84 120.618 79.44 121.594 79.088C122.586 78.72 123.514 78.432 124.378 78.224C125.242 78.016 125.97 77.912 126.562 77.912C127.026 77.912 127.378 78.048 127.618 78.32C127.858 78.592 127.978 78.888 127.978 79.208C127.978 79.448 127.906 79.688 127.762 79.928C127.618 80.168 127.314 80.376 126.85 80.552C125.314 81.064 123.786 81.584 122.266 82.112C120.762 82.64 119.09 83.264 117.25 83.984C117.634 84.736 118.082 85.512 118.594 86.312C119.106 87.096 119.658 87.832 120.25 88.52C120.842 89.192 121.45 89.744 122.074 90.176C122.698 90.592 123.314 90.8 123.922 90.8C124.818 90.8 125.682 90.624 126.514 90.272C127.346 89.904 128.114 89.464 128.818 88.952C129.522 88.424 130.138 87.912 130.666 87.416C131.21 86.92 131.634 86.536 131.938 86.264C132.114 86.088 132.282 85.96 132.442 85.88C132.618 85.8 132.834 85.76 133.09 85.76C133.394 85.76 133.626 85.856 133.786 86.048C133.962 86.224 134.042 86.456 134.026 86.744C134.01 87.016 133.874 87.288 133.618 87.56C133.41 87.784 133.082 88.144 132.634 88.64C132.202 89.12 131.674 89.656 131.05 90.248C130.442 90.824 129.762 91.384 129.01 91.928C128.274 92.456 127.49 92.888 126.658 93.224C125.826 93.576 124.97 93.752 124.09 93.752Z" fill="#333333"/>
<path d="M92.8893 91.9998C92.5053 91.9998 92.1213 91.8718 91.7373 91.6158C91.3693 91.3438 91.0653 90.9598 90.8253 90.4638C90.5853 89.9518 90.4653 89.3358 90.4653 88.6158C90.4653 87.6558 90.5933 86.6318 90.8493 85.5438C91.1213 84.4558 91.4493 83.3678 91.8333 82.2798C92.2173 81.1918 92.5933 80.1678 92.9613 79.2078C93.1373 78.7438 93.3533 78.4318 93.6093 78.2718C93.8653 78.0958 94.2013 78.0078 94.6173 78.0078C95.5613 78.0078 96.0333 78.4798 96.0333 79.4238C96.0333 79.5838 95.9613 79.8958 95.8173 80.3598C95.6733 80.8078 95.4813 81.3598 95.2413 82.0158C95.0173 82.6718 94.7773 83.3838 94.5213 84.1518C94.2813 84.9038 94.0573 85.6718 93.8493 86.4558C93.6573 87.2238 93.5053 87.9518 93.3933 88.6398C93.7613 88.0798 94.1693 87.3838 94.6173 86.5518C95.0813 85.7038 95.5693 84.8158 96.0813 83.8878C96.6093 82.9598 97.1373 82.0958 97.6653 81.2958C98.1933 80.4798 98.7133 79.8158 99.2253 79.3038C99.7373 78.7918 100.225 78.5358 100.689 78.5358C101.089 78.5358 101.465 78.6158 101.817 78.7758C102.185 78.9198 102.505 79.2078 102.777 79.6398C103.049 80.0558 103.257 80.6558 103.401 81.4398C103.561 82.2238 103.641 83.2558 103.641 84.5358C103.641 85.1758 103.697 85.7998 103.809 86.4078C103.937 86.9998 104.145 87.4958 104.433 87.8958C104.721 88.2798 105.129 88.4718 105.657 88.4718C106.569 88.4718 107.385 88.3038 108.105 87.9678C108.825 87.6318 109.457 87.2398 110.001 86.7918C110.545 86.3438 111.001 85.9518 111.369 85.6158C111.593 85.3918 111.785 85.2158 111.945 85.0878C112.121 84.9598 112.265 84.8958 112.377 84.8958C112.713 84.8958 112.953 84.9838 113.097 85.1598C113.257 85.3358 113.337 85.5758 113.337 85.8798C113.337 86.0398 113.201 86.3358 112.929 86.7678C112.657 87.1998 112.273 87.6958 111.777 88.2558C111.297 88.7998 110.745 89.3278 110.121 89.8398C109.497 90.3518 108.825 90.7758 108.105 91.1118C107.385 91.4478 106.649 91.6158 105.897 91.6158C104.633 91.6158 103.585 91.3918 102.753 90.9438C101.937 90.4798 101.329 89.7118 100.929 88.6398C100.529 87.5518 100.329 86.0718 100.329 84.1998C100.329 84.1518 100.329 84.0718 100.329 83.9598C100.329 83.4638 100.321 83.0238 100.305 82.6398C100.305 82.2558 100.281 81.9438 100.233 81.7038C99.9613 82.1998 99.6333 82.7918 99.2493 83.4798C98.8813 84.1678 98.4813 84.9038 98.0493 85.6878C97.6173 86.4558 97.1693 87.2158 96.7053 87.9678C96.2413 88.7038 95.7773 89.3758 95.3133 89.9838C94.8653 90.5918 94.4333 91.0798 94.0173 91.4478C93.6013 91.8158 93.2253 91.9998 92.8893 91.9998Z" fill="#333333"/>
<path d="M84.1684 92.3598C83.7204 92.3598 83.3204 92.2078 82.9684 91.9038C82.6324 91.5998 82.4644 91.1038 82.4644 90.4158C82.4644 90.0478 82.5124 89.5278 82.6084 88.8558C82.7204 88.1838 82.8644 87.4558 83.0404 86.6718C83.2164 85.8718 83.4084 85.0798 83.6164 84.2958C83.8404 83.5118 84.0564 82.8158 84.2644 82.2078C84.4724 81.5838 84.6564 81.1198 84.8164 80.8158C85.0244 80.4478 85.2164 80.2238 85.3924 80.1438C85.5844 80.0478 85.7684 79.9998 85.9444 79.9998C86.2644 79.9998 86.5604 80.0958 86.8324 80.2878C87.1204 80.4798 87.2644 80.9038 87.2644 81.5598C87.2644 81.8158 87.2164 82.2318 87.1204 82.8078C87.0244 83.3678 86.9044 84.0238 86.7604 84.7758C86.6164 85.5278 86.4564 86.3038 86.2804 87.1038C86.1204 87.9038 85.9604 88.6638 85.8004 89.3838C85.6564 90.0878 85.5364 90.6798 85.4404 91.1598C85.3604 91.5598 85.1924 91.8558 84.9364 92.0478C84.6964 92.2558 84.4404 92.3598 84.1684 92.3598ZM86.9284 77.6238C86.4004 77.6238 85.9124 77.4718 85.4644 77.1678C85.0164 76.8478 84.7924 76.3598 84.7924 75.7038C84.7924 75.1598 84.9284 74.7198 85.2004 74.3838C85.4724 74.0478 85.7924 73.8078 86.1604 73.6638C86.5444 73.5038 86.8804 73.4238 87.1684 73.4238C87.4564 73.4238 87.7764 73.4878 88.1284 73.6158C88.4804 73.7278 88.7844 73.9438 89.0404 74.2638C89.3124 74.5678 89.4484 75.0078 89.4484 75.5838C89.4484 75.9678 89.3124 76.3198 89.0404 76.6398C88.7684 76.9438 88.4324 77.1838 88.0324 77.3598C87.6484 77.5358 87.2804 77.6238 86.9284 77.6238Z" fill="#333333"/>
<path d="M63.0108 93.8724C62.2748 93.8724 61.7468 93.6644 61.4268 93.2484C61.1068 92.8324 60.9468 92.2244 60.9468 91.4244C60.9468 90.6884 61.0828 89.7284 61.3548 88.5444C61.6428 87.3444 62.0188 86.0084 62.4828 84.5364C62.9628 83.0484 63.4988 81.5204 64.0908 79.9524C64.6828 78.3684 65.2988 76.8164 65.9388 75.2964C66.5788 73.7604 67.2028 72.3524 67.8108 71.0724C68.0988 70.5124 68.4028 70.1284 68.7228 69.9204C69.0428 69.7124 69.3948 69.6084 69.7788 69.6084C70.1468 69.6084 70.4588 69.7124 70.7148 69.9204C70.9708 70.1124 71.0988 70.4244 71.0988 70.8564C71.0988 70.9524 70.9708 71.3204 70.7148 71.9604C70.4588 72.5844 70.1228 73.4004 69.7068 74.4084C69.2908 75.4004 68.8348 76.5204 68.3388 77.7684C67.8428 79.0004 67.3468 80.2884 66.8508 81.6324C66.3548 82.9604 65.9068 84.2724 65.5068 85.5684C65.1068 86.8644 64.7868 88.0644 64.5468 89.1684C65.1068 88.4164 65.7068 87.5844 66.3468 86.6724C67.0028 85.7444 67.6668 84.8244 68.3388 83.9124C69.0268 82.9844 69.6988 82.1364 70.3548 81.3684C71.0268 80.6004 71.6508 79.9844 72.2268 79.5204C72.8028 79.0564 73.3068 78.8244 73.7388 78.8244C74.5388 78.8244 75.1788 79.0484 75.6588 79.4964C76.1548 79.9284 76.4028 80.6804 76.4028 81.7524C76.4028 82.2484 76.3068 82.8484 76.1148 83.5524C75.9228 84.2404 75.6908 84.9684 75.4188 85.7364C75.1628 86.4884 74.9388 87.2164 74.7468 87.9204C74.5548 88.6244 74.4588 89.2404 74.4588 89.7684C74.4588 90.0564 74.5948 90.2004 74.8668 90.2004C75.6508 90.2004 76.4428 90.0324 77.2428 89.6964C78.0588 89.3604 78.8348 88.9444 79.5708 88.4484C80.3228 87.9364 81.0028 87.4324 81.6108 86.9364C82.2348 86.4244 82.7388 86.0004 83.1228 85.6644C83.3948 85.4084 83.6428 85.2404 83.8668 85.1604C84.0908 85.0644 84.2988 85.0164 84.4908 85.0164C85.1468 85.0164 85.4748 85.3444 85.4748 86.0004C85.4748 86.1284 85.4508 86.2884 85.4028 86.4804C85.3548 86.6564 85.2028 86.8804 84.9468 87.1524C84.6908 87.4244 84.3068 87.8084 83.7948 88.3044C83.2828 88.8004 82.6828 89.3284 81.9948 89.8884C81.3228 90.4484 80.5868 90.9844 79.7868 91.4964C79.0028 91.9924 78.1948 92.4004 77.3628 92.7204C76.5308 93.0404 75.7228 93.2004 74.9388 93.2004C73.7548 93.2004 72.8428 92.8644 72.2028 92.1924C71.5628 91.5364 71.2428 90.6404 71.2428 89.5044C71.2428 88.7204 71.4028 87.7364 71.7228 86.5524C72.0428 85.3524 72.4028 84.1284 72.8028 82.8804C72.2428 83.4244 71.6588 84.0724 71.0508 84.8244C70.4428 85.5604 69.8268 86.3444 69.2028 87.1764C68.5788 87.9924 67.9628 88.8004 67.3548 89.6004C66.7628 90.3844 66.1948 91.1044 65.6508 91.7604C65.1068 92.4004 64.6108 92.9124 64.1628 93.2964C63.7148 93.6804 63.3308 93.8724 63.0108 93.8724Z" fill="#333333"/>
<path d="M45.2481 77.3839C44.4801 77.3839 43.9121 77.3119 43.5441 77.1679C43.1921 77.0079 42.9601 76.8239 42.8481 76.6159C42.7521 76.3919 42.7041 76.1919 42.7041 76.0159C42.7041 75.7919 42.8321 75.5359 43.0881 75.2479C43.3441 74.9439 43.8401 74.7199 44.5761 74.5759C45.3121 74.4159 46.1841 74.2719 47.1921 74.1439C48.2001 73.9999 49.2721 73.8799 50.4081 73.7839C51.5441 73.6719 52.6961 73.5759 53.8641 73.4959C55.0321 73.4159 56.1441 73.3599 57.2001 73.3279C58.2561 73.2799 59.1921 73.2559 60.0081 73.2559C60.8561 73.2559 61.5121 73.3039 61.9761 73.3999C62.4401 73.4959 62.7681 73.6159 62.9601 73.7599C63.1681 73.9039 63.2881 74.0559 63.3201 74.2159C63.3681 74.3759 63.3921 74.5279 63.3921 74.6719C63.3921 74.7039 63.3921 74.7279 63.3921 74.7439C63.3921 74.9359 63.3441 75.1439 63.2481 75.3679C63.1681 75.5919 62.9841 75.7839 62.6961 75.9439C62.4081 76.0879 61.9761 76.1599 61.4001 76.1599C61.1921 76.1599 60.7281 76.1919 60.0081 76.2559C59.2881 76.3199 58.4081 76.3999 57.3681 76.4959C56.3281 76.5919 55.2241 76.6879 54.0561 76.7839C53.8801 77.5039 53.6801 78.3439 53.4561 79.3039C53.2481 80.2639 53.0321 81.2719 52.8081 82.3279C52.6001 83.3839 52.4001 84.4239 52.2081 85.4479C52.0161 86.4559 51.8561 87.3919 51.7281 88.2559C51.6001 89.1039 51.5121 89.7999 51.4641 90.3439C51.4001 91.0799 51.1841 91.5999 50.8161 91.9039C50.4641 92.1919 50.1121 92.3359 49.7601 92.3359C49.5041 92.3359 49.2481 92.2799 48.9921 92.1679C48.7361 92.0719 48.5281 91.8559 48.3681 91.5199C48.2081 91.1679 48.1281 90.6479 48.1281 89.9599C48.1281 89.2559 48.1921 88.3919 48.3201 87.3679C48.4481 86.3279 48.6161 85.2159 48.8241 84.0319C49.0481 82.8479 49.2961 81.6559 49.5681 80.4559C49.8561 79.2559 50.1521 78.1359 50.4561 77.0959C49.3841 77.1759 48.3921 77.2479 47.4801 77.3119C46.5681 77.3599 45.8241 77.3839 45.2481 77.3839Z" fill="#333333"/>
<path d="M227.386 102.445C227.786 102.517 228.144 102.741 228.384 103.069C228.624 103.398 228.728 103.806 228.675 104.21C228.566 104.806 228.26 105.35 227.807 105.753C227.281 106.251 226.716 106.708 226.119 107.119C225.446 107.627 224.466 108.361 223.736 108.789C222.853 109.308 217.73 112.053 216.968 112.385C215.835 112.879 212.807 113.903 212.234 114.073C211.83 114.181 211.427 114.289 210.984 114.408C211.634 116.016 210.87 117.213 210.132 118.089C209.468 118.877 208.529 119.285 207.62 119.791C206.002 120.678 204.32 121.442 202.587 122.077C197.239 124.126 191.638 125.23 186.139 126.779C184.958 127.115 183.752 127.369 182.554 127.641C179.746 128.28 176.939 128.908 174.134 129.524C173.32 129.703 166.591 130.854 165.825 130.928C164.886 131.019 160.988 131.434 160.053 131.492C158.847 131.576 155.2 131.721 154.608 131.725C154.016 131.73 153.37 131.69 152.753 131.685C152.243 131.678 150.061 131.604 149.484 131.578C149.101 131.556 148.721 131.553 148.338 131.531C147.308 131.48 146.272 131.403 145.243 131.326C145.13 131.32 144.879 131.279 144.643 131.24C144.453 131.214 144.276 131.127 144.139 130.992C144.002 130.857 143.912 130.681 143.882 130.491C143.768 129.663 145.027 129.529 145.192 129.511C145.71 129.502 146.227 129.529 146.741 129.594C147.075 129.619 147.375 129.699 147.692 129.709C148.895 129.747 150.101 129.761 151.319 129.795C152.235 129.825 159.784 129.598 160.582 129.528C161.379 129.459 169.496 128.45 170.79 128.267C170.906 128.236 171.025 128.227 171.142 128.199C174.909 127.344 178.699 126.581 182.449 125.648C188.183 124.223 193.908 122.737 199.624 121.19C204.943 119.375 207.98 117.578 208.81 116.861C209.252 116.566 209.833 115.237 209.111 115.195L208.325 115.405C205.473 116.17 202.641 117.033 199.755 117.656C198.206 117.989 196.553 117.934 195.151 116.858C194.223 116.144 193.967 115.092 193.988 114.084C194.007 112.932 194.766 112.096 195.925 111.737C199.232 110.716 200.711 110.782 201.575 110.816C202.53 110.826 203.483 110.914 204.424 111.081C205.478 111.305 206.515 111.606 207.525 111.98C208.12 112.194 208.652 112.589 209.23 112.863C209.422 112.932 209.631 112.936 209.825 112.874C210.872 112.574 211.92 112.28 212.953 111.928C213.719 111.667 214.467 111.355 215.216 111.046C215.807 110.803 216.77 110.387 217.352 110.127C217.934 109.866 218.524 109.609 219.076 109.337C219.943 108.902 220.809 108.466 221.645 107.993C222.583 107.457 223.518 106.912 224.396 106.29C225.147 105.726 225.868 105.124 226.557 104.486C226.604 104.443 226.643 104.392 226.67 104.334C226.795 104.099 226.823 103.825 226.747 103.57C226.672 103.401 226.647 103.213 226.677 103.031C226.707 102.848 226.789 102.678 226.914 102.542C226.979 102.489 227.056 102.452 227.138 102.435C227.22 102.418 227.305 102.422 227.386 102.445ZM206.956 113.816C206.703 113.687 206.444 113.572 206.179 113.471C205.288 113.192 201.975 112.579 201.245 112.604C200.235 112.63 199.231 112.754 198.245 112.976C197.742 113.07 197.246 113.203 196.763 113.373C196.436 113.508 196.176 113.766 196.037 114.091C195.899 114.416 195.894 114.782 196.023 115.111C196.187 115.503 196.474 115.645 197.088 115.809C197.909 115.999 198.761 116.01 199.586 115.84C201.875 115.309 206.688 113.918 206.952 113.801L206.956 113.816Z" fill="#1A1A1A"/>
<path d="M317.278 176.545C316.356 175.267 315.411 174.034 314.567 172.745C314.278 172.312 313.756 171.689 314.078 171.2C314.333 170.945 315.044 171.089 315.511 171.156C320.9 171.934 326.144 173.267 331.078 175.634C333.4 176.745 333.656 177.223 333.089 179.623C331.9 184.689 330.067 189.478 327.544 194C327.433 194.189 326.589 195.412 326.2 195C325.344 193.189 324.533 191.478 323.689 189.678C322.733 190.245 321.833 190.778 320.933 191.312C310.956 197.212 301.133 203.356 292.311 210.945C290.233 212.734 288.167 214.534 286.089 216.323C285.067 217.212 284.622 217.2 283.789 215.978C282.367 213.9 280.978 211.789 279.689 209.634C278.078 206.945 276.589 204.178 275.056 201.445C274.378 200.245 274.478 199.245 275.578 198.289C283.633 191.267 292.278 185.178 302.411 181.512C307.278 179.745 312.211 178.223 317.278 176.545ZM317.078 173.3C317.944 174.123 318.844 174.923 319.644 175.8C320.344 176.556 320.133 177.478 319.167 177.845C318.056 178.267 316.956 178.734 315.822 179.123C302.444 183.712 289.811 189.723 278.811 198.8C278.389 199.156 277.944 199.489 277.678 199.7C280.278 204.623 282.789 209.367 285.289 214.089C287.622 211.967 289.822 209.867 292.122 207.856C301.678 199.512 312.5 193.112 323.8 187.445C324.756 186.967 325.367 187.289 325.711 188.145C326.189 189.312 327.122 191.889 327.122 191.889C328.833 187.3 330.6 182.567 332.333 177.934C332.356 177.867 332.322 177.778 332.256 177.745C327.2 175.556 322.344 173.945 317.122 173.212C317.078 173.212 317.056 173.267 317.078 173.3Z" fill="#1A1A1A"/>
<path d="M242.501 55.2595C242.718 54.3928 242.845 53.6886 243.079 53.0025C245.426 46.0692 249.2 39.8942 253.497 34.0261C254.003 33.34 254.635 32.69 255.339 32.2567C255.718 32.022 256.476 32.0581 256.91 32.2928C257.235 32.4733 257.47 33.1775 257.397 33.5747C257.271 34.3331 257 35.1095 256.621 35.7956C254.129 40.3275 251.62 44.8414 249.074 49.3372C248.117 51.0164 247.106 52.6775 246.113 54.3386C245.788 54.8983 245.426 55.44 245.047 55.9456C244.632 56.5233 244 56.8664 243.368 56.4872C242.953 56.2345 242.501 56.0539 242.501 55.2595Z" fill="#333333"/>
<path d="M268.068 82.1441C267.202 81.9997 266.191 81.8913 265.216 81.6747C261.37 80.808 257.524 79.9413 253.696 79.0385C252.866 78.8399 252.053 78.4969 251.313 78.0997C250.32 77.576 249.977 76.8358 250.139 76.0233C250.302 75.2108 250.952 74.7052 252.089 74.6872C252.866 74.6691 253.696 74.6872 254.436 74.8677C259.293 76.0955 264.15 77.3594 268.989 78.6413C269.531 78.7858 270.091 79.0385 270.506 79.3997C271.553 80.2844 271.228 81.6747 269.892 82.0177C269.368 82.1441 268.773 82.0899 268.068 82.1441Z" fill="#333333"/>
<path d="M217.332 33.737C217.404 32.8884 217.585 32.0398 217.801 31.2092C218 30.4689 218.506 29.9453 219.318 29.8731C220.004 29.8189 220.744 30.5051 220.853 31.4078C220.997 32.6176 221.124 33.8453 221.069 35.0551C220.907 38.7023 220.672 42.3676 220.419 46.0148C220.329 47.2245 220.167 48.4342 219.968 49.644C219.896 50.0592 219.751 50.4926 219.517 50.8176C218.885 51.7384 217.729 51.6662 217.278 50.6731C217.025 50.1134 216.917 49.4273 216.917 48.8134C216.826 46.7912 217.097 36.7342 217.332 33.737Z" fill="#333333"/>
<path d="M143.714 308.337C140.445 308.337 137.324 308.299 134.211 308.344C126.574 308.448 118.945 308.59 111.308 308.717C109.643 308.747 109.546 308.74 109.538 307.06C109.493 302.036 109.531 297.019 109.538 291.995C109.538 290.957 109.568 289.912 109.605 288.875C109.62 288.494 109.591 288.091 109.673 287.732C109.74 287.404 109.919 287.143 110.494 287.143C110.875 287.143 111.031 287.501 111.091 287.755C111.218 288.3 111.24 288.875 111.24 289.434C111.21 295.108 111.166 300.789 111.128 306.463C111.128 306.761 111.128 307.052 111.128 307.344C112.704 307.344 114.264 307.381 115.824 307.336C124.021 307.127 132.218 306.896 140.415 306.672C141.572 306.642 142.729 306.575 143.886 306.545C145.349 306.508 145.357 306.59 145.342 308.06C145.319 310.054 145.424 312.039 145.454 314.033C145.476 315.458 145.461 316.884 145.603 318.333C145.842 317.631 146.043 316.914 146.35 316.25C146.484 315.959 146.82 315.421 147.096 315.533C147.566 315.548 147.522 316.227 147.454 316.511C146.79 319.4 146.081 322.282 145.349 325.156C145.192 325.731 144.849 325.768 144.759 325.798C144.326 325.925 144.02 325.955 143.513 324.954C143.416 324.76 143.266 324.551 143.192 324.327C142.49 322.214 141.781 320.109 141.124 317.982C141.042 317.72 140.9 317.138 141.363 317.063C141.818 316.892 142.102 317.355 142.221 317.616C142.766 318.788 143.214 320.005 143.722 321.259C143.714 316.884 143.714 312.577 143.714 308.337Z" fill="#1A1A1A"/>
</g>
<defs>
<filter id="filter0_dd_634_350451" x="-21" y="248" width="122" height="122" filterUnits="userSpaceOnUse" color-interpolation-filters="sRGB">
<feFlood flood-opacity="0" result="BackgroundImageFix"/>
<feColorMatrix in="SourceAlpha" type="matrix" values="0 0 0 0 0 0 0 0 0 0 0 0 0 0 0 0 0 0 127 0" result="hardAlpha"/>
<feOffset dy="1"/>
<feGaussianBlur stdDeviation="1.5"/>
<feColorMatrix type="matrix" values="0 0 0 0 0 0 0 0 0 0 0 0 0 0 0 0 0 0 0.3 0"/>
<feBlend mode="normal" in2="BackgroundImageFix" result="effect1_dropShadow_634_350451"/>
<feColorMatrix in="SourceAlpha" type="matrix" values="0 0 0 0 0 0 0 0 0 0 0 0 0 0 0 0 0 0 127 0" result="hardAlpha"/>
<feMorphology radius="3" operator="dilate" in="SourceAlpha" result="effect2_dropShadow_634_350451"/>
<feOffset dy="4"/>
<feGaussianBlur stdDeviation="4"/>
<feColorMatrix type="matrix" values="0 0 0 0 0 0 0 0 0 0 0 0 0 0 0 0 0 0 0.15 0"/>
<feBlend mode="normal" in2="effect1_dropShadow_634_350451" result="effect2_dropShadow_634_350451"/>
<feBlend mode="normal" in="SourceGraphic" in2="effect2_dropShadow_634_350451" result="shape"/>
</filter>
<filter id="filter1_dd_634_350451" x="32" y="176" width="122" height="122" filterUnits="userSpaceOnUse" color-interpolation-filters="sRGB">
<feFlood flood-opacity="0" result="BackgroundImageFix"/>
<feColorMatrix in="SourceAlpha" type="matrix" values="0 0 0 0 0 0 0 0 0 0 0 0 0 0 0 0 0 0 127 0" result="hardAlpha"/>
<feOffset dy="1"/>
<feGaussianBlur stdDeviation="1.5"/>
<feColorMatrix type="matrix" values="0 0 0 0 0 0 0 0 0 0 0 0 0 0 0 0 0 0 0.3 0"/>
<feBlend mode="normal" in2="BackgroundImageFix" result="effect1_dropShadow_634_350451"/>
<feColorMatrix in="SourceAlpha" type="matrix" values="0 0 0 0 0 0 0 0 0 0 0 0 0 0 0 0 0 0 127 0" result="hardAlpha"/>
<feMorphology radius="3" operator="dilate" in="SourceAlpha" result="effect2_dropShadow_634_350451"/>
<feOffset dy="4"/>
<feGaussianBlur stdDeviation="4"/>
<feColorMatrix type="matrix" values="0 0 0 0 0 0 0 0 0 0 0 0 0 0 0 0 0 0 0.15 0"/>
<feBlend mode="normal" in2="effect1_dropShadow_634_350451" result="effect2_dropShadow_634_350451"/>
<feBlend mode="normal" in="SourceGraphic" in2="effect2_dropShadow_634_350451" result="shape"/>
</filter>
<filter id="filter2_dd_634_350451" x="147" y="139" width="122" height="122" filterUnits="userSpaceOnUse" color-interpolation-filters="sRGB">
<feFlood flood-opacity="0" result="BackgroundImageFix"/>
<feColorMatrix in="SourceAlpha" type="matrix" values="0 0 0 0 0 0 0 0 0 0 0 0 0 0 0 0 0 0 127 0" result="hardAlpha"/>
<feOffset dy="1"/>
<feGaussianBlur stdDeviation="1.5"/>
<feColorMatrix type="matrix" values="0 0 0 0 0 0 0 0 0 0 0 0 0 0 0 0 0 0 0.3 0"/>
<feBlend mode="normal" in2="BackgroundImageFix" result="effect1_dropShadow_634_350451"/>
<feColorMatrix in="SourceAlpha" type="matrix" values="0 0 0 0 0 0 0 0 0 0 0 0 0 0 0 0 0 0 127 0" result="hardAlpha"/>
<feMorphology radius="3" operator="dilate" in="SourceAlpha" result="effect2_dropShadow_634_350451"/>
<feOffset dy="4"/>
<feGaussianBlur stdDeviation="4"/>
<feColorMatrix type="matrix" values="0 0 0 0 0 0 0 0 0 0 0 0 0 0 0 0 0 0 0.15 0"/>
<feBlend mode="normal" in2="effect1_dropShadow_634_350451" result="effect2_dropShadow_634_350451"/>
<feBlend mode="normal" in="SourceGraphic" in2="effect2_dropShadow_634_350451" result="shape"/>
</filter>
<filter id="filter3_dd_634_350451" x="71" y="323" width="122" height="122" filterUnits="userSpaceOnUse" color-interpolation-filters="sRGB">
<feFlood flood-opacity="0" result="BackgroundImageFix"/>
<feColorMatrix in="SourceAlpha" type="matrix" values="0 0 0 0 0 0 0 0 0 0 0 0 0 0 0 0 0 0 127 0" result="hardAlpha"/>
<feOffset dy="1"/>
<feGaussianBlur stdDeviation="1.5"/>
<feColorMatrix type="matrix" values="0 0 0 0 0 0 0 0 0 0 0 0 0 0 0 0 0 0 0.3 0"/>
<feBlend mode="normal" in2="BackgroundImageFix" result="effect1_dropShadow_634_350451"/>
<feColorMatrix in="SourceAlpha" type="matrix" values="0 0 0 0 0 0 0 0 0 0 0 0 0 0 0 0 0 0 127 0" result="hardAlpha"/>
<feMorphology radius="3" operator="dilate" in="SourceAlpha" result="effect2_dropShadow_634_350451"/>
<feOffset dy="4"/>
<feGaussianBlur stdDeviation="4"/>
<feColorMatrix type="matrix" values="0 0 0 0 0 0 0 0 0 0 0 0 0 0 0 0 0 0 0.15 0"/>
<feBlend mode="normal" in2="effect1_dropShadow_634_350451" result="effect2_dropShadow_634_350451"/>
<feBlend mode="normal" in="SourceGraphic" in2="effect2_dropShadow_634_350451" result="shape"/>
</filter>
<clipPath id="clip0_634_350451">
<rect width="336" height="414" fill="white"/>
</clipPath>
</defs>
</svg>
