<svg width="331" height="414" viewBox="0 0 331 414" fill="none" xmlns="http://www.w3.org/2000/svg">
<g filter="url(#filter0_dd_650_52068)">
<path d="M113 64C113 55.1634 120.163 48 129 48H267C275.837 48 283 55.1634 283 64V362C283 370.837 275.837 378 267 378H129C120.163 378 113 370.837 113 362V64Z" fill="#999999"/>
<path d="M129 49.5H267C275.008 49.5 281.5 55.9919 281.5 64V362C281.5 370.008 275.008 376.5 267 376.5H129C120.992 376.5 114.5 370.008 114.5 362V64C114.5 55.9919 120.992 49.5 129 49.5Z" stroke="#999999" stroke-width="3"/>
</g>
<path d="M116 39.5H254C262.008 39.5 268.5 45.9919 268.5 54V352C268.5 360.008 262.008 366.5 254 366.5H116C107.992 366.5 101.5 360.008 101.5 352V54C101.5 45.9919 107.992 39.5 116 39.5Z" fill="#4D4D4D"/>
<path d="M116 39.5H254C262.008 39.5 268.5 45.9919 268.5 54V352C268.5 360.008 262.008 366.5 254 366.5H116C107.992 366.5 101.5 360.008 101.5 352V54C101.5 45.9919 107.992 39.5 116 39.5Z" stroke="#999999" stroke-width="3"/>
<path d="M111 141C111 138.791 112.791 137 115 137H175C177.209 137 179 138.791 179 141V212C179 214.209 177.209 216 175 216H115C112.791 216 111 214.209 111 212V141Z" fill="#CCCCCC"/>
<path d="M190 141C190 138.791 191.791 137 194 137H254C256.209 137 258 138.791 258 141V212C258 214.209 256.209 216 254 216H194C191.791 216 190 214.209 190 212V141Z" fill="#CCCCCC"/>
<path d="M111 231C111 228.791 112.791 227 115 227H175C177.209 227 179 228.791 179 231V302C179 304.209 177.209 306 175 306H115C112.791 306 111 304.209 111 302V231Z" fill="#CCCCCC"/>
<path d="M190 231C190 228.791 191.791 227 194 227H254C256.209 227 258 228.791 258 231V302C258 304.209 256.209 306 254 306H194C191.791 306 190 304.209 190 302V231Z" fill="#CCCCCC"/>
<path d="M111 65.5C111 61.9101 113.91 59 117.5 59H183.5C187.09 59 190 61.9101 190 65.5C190 69.0899 187.09 72 183.5 72H117.5C113.91 72 111 69.0899 111 65.5Z" fill="#CCCCCC"/>
<path d="M111 87.5C111 85.567 112.567 84 114.5 84H254.5C256.433 84 258 85.567 258 87.5C258 89.433 256.433 91 254.5 91H114.5C112.567 91 111 89.433 111 87.5Z" fill="#CCCCCC"/>
<path d="M111 100.5C111 98.567 112.567 97 114.5 97H254.5C256.433 97 258 98.567 258 100.5C258 102.433 256.433 104 254.5 104H114.5C112.567 104 111 102.433 111 100.5Z" fill="#CCCCCC"/>
<path d="M111 113.5C111 111.567 112.567 110 114.5 110H212.5C214.433 110 216 111.567 216 113.5C216 115.433 214.433 117 212.5 117H114.5C112.567 117 111 115.433 111 113.5Z" fill="#CCCCCC"/>
<path d="M111 334C111 329.582 114.582 326 119 326H250C254.418 326 258 329.582 258 334V338C258 342.418 254.418 346 250 346H119C114.582 346 111 342.418 111 338V334Z" fill="#CCCCCC"/>
<g clip-path="url(#clip0_650_52068)">
<path d="M55.8666 219.969C52.2695 219.439 48.6867 218.951 45.1088 218.35C39.8313 217.472 34.5537 216.594 29.3145 215.573C24.6952 214.667 20.1063 213.552 15.5134 212.5C14.7093 212.31 13.9037 212.03 13.1594 211.665C11.2644 210.736 10.6868 209.701 11.0355 207.638C11.7272 203.484 12.446 199.325 13.2244 195.182C13.7166 192.583 14.7274 191.859 17.258 192.511C26.472 194.891 35.6693 197.381 44.8642 199.832C49.0671 200.958 53.282 202.087 57.6516 203.258C57.7672 202.255 57.9593 200.967 58.0736 199.683C58.1581 198.749 58.531 198.262 59.4952 198.711C60.3261 199.087 61.3112 199.364 61.9075 199.996C66.1739 204.457 70.3704 208.989 74.5852 213.5C74.8818 213.822 75.1235 214.205 75.3565 214.574C76.6467 216.617 76.3985 217.686 74.2297 218.636C69.5664 220.705 64.8595 222.698 60.1732 224.709C59.7275 224.896 59.2383 225.007 58.7696 225.137C57.5528 225.487 56.7283 225.087 56.4837 223.81C56.2446 222.559 56.0833 221.303 55.8666 219.969ZM59.9849 201.599C59.9495 202.636 59.9207 203.458 59.8919 204.279C59.8348 205.54 59.1925 206.223 57.9246 206.049C56.3257 205.825 54.7213 205.574 53.1767 205.147C43.8549 202.598 34.5522 199.978 25.2399 197.394C21.9958 196.499 18.739 195.652 15.4767 194.777C14.8716 199.465 14.2537 204.199 13.6199 208.994C18.8575 210.116 24.0323 211.235 29.2103 212.342C37.5969 214.142 46.005 215.91 54.3788 217.758C57.7628 218.512 57.7405 218.595 57.8816 222.117C57.8862 222.195 57.9183 222.599 58.1209 222.462C63.0488 220.311 68.0068 218.143 73.0641 215.938C68.675 211.125 64.3946 206.43 59.9849 201.599Z" fill="#F2F2F2"/>
</g>
<defs>
<filter id="filter0_dd_650_52068" x="95" y="38" width="206" height="366" filterUnits="userSpaceOnUse" color-interpolation-filters="sRGB">
<feFlood flood-opacity="0" result="BackgroundImageFix"/>
<feColorMatrix in="SourceAlpha" type="matrix" values="0 0 0 0 0 0 0 0 0 0 0 0 0 0 0 0 0 0 127 0" result="hardAlpha"/>
<feOffset dy="4"/>
<feGaussianBlur stdDeviation="2"/>
<feColorMatrix type="matrix" values="0 0 0 0 0 0 0 0 0 0 0 0 0 0 0 0 0 0 0.3 0"/>
<feBlend mode="normal" in2="BackgroundImageFix" result="effect1_dropShadow_650_52068"/>
<feColorMatrix in="SourceAlpha" type="matrix" values="0 0 0 0 0 0 0 0 0 0 0 0 0 0 0 0 0 0 127 0" result="hardAlpha"/>
<feMorphology radius="6" operator="dilate" in="SourceAlpha" result="effect2_dropShadow_650_52068"/>
<feOffset dy="8"/>
<feGaussianBlur stdDeviation="6"/>
<feColorMatrix type="matrix" values="0 0 0 0 0 0 0 0 0 0 0 0 0 0 0 0 0 0 0.15 0"/>
<feBlend mode="normal" in2="effect1_dropShadow_650_52068" result="effect2_dropShadow_650_52068"/>
<feBlend mode="normal" in="SourceGraphic" in2="effect2_dropShadow_650_52068" result="shape"/>
</filter>
<clipPath id="clip0_650_52068">
<rect width="71" height="71" fill="white" transform="translate(0 231.581) rotate(-75)"/>
</clipPath>
</defs>
</svg>
