<svg width="143" height="414" viewBox="0 0 143 414" fill="none" xmlns="http://www.w3.org/2000/svg">
<g clip-path="url(#clip0_650_51944)">
<g filter="url(#filter0_dd_650_51944)">
<path d="M4 94C4 89.5817 7.58172 86 12 86H96C100.418 86 104 89.5817 104 94V178C104 182.418 100.418 186 96 186H12C7.58172 186 4 182.418 4 178V94Z" fill="#FFAFA3"/>
<path d="M16 106C16 102.686 18.6863 100 22 100H86C89.3137 100 92 102.686 92 106C92 109.314 89.3137 112 86 112H22C18.6863 112 16 109.314 16 106Z" fill="black" fill-opacity="0.1"/>
<path d="M16 126C16 122.686 18.6863 120 22 120H78C81.3137 120 84 122.686 84 126C84 129.314 81.3137 132 78 132H22C18.6863 132 16 129.314 16 126Z" fill="black" fill-opacity="0.1"/>
<path d="M16 146C16 142.686 18.6863 140 22 140H86C89.3137 140 92 142.686 92 146C92 149.314 89.3137 152 86 152H22C18.6863 152 16 149.314 16 146Z" fill="black" fill-opacity="0.1"/>
<path d="M16 166C16 162.686 18.6863 160 22 160H46C49.3137 160 52 162.686 52 166C52 169.314 49.3137 172 46 172H22C18.6863 172 16 169.314 16 166Z" fill="black" fill-opacity="0.1"/>
</g>
<g clip-path="url(#clip1_650_51944)">
<path d="M82.1966 291.65C81.16 292.971 80.4312 294.343 79.6501 295.769C79.1819 296.616 78.4039 297.854 79.3534 298.803C79.7707 299.212 81.1463 299.606 82.0079 299.429C90.8372 297.651 99.6689 295.833 108.467 293.89C110.855 293.37 111.52 292.109 110.234 289.806C107.757 285.403 105.106 281.046 102.111 276.955C99.639 273.566 96.7145 270.486 93.751 267.51C92.2693 266.021 92.2693 266.021 91.2105 266.212C90.6002 266.429 90.2528 268.126 90.2099 269.114C90.1279 270.753 90.0398 272.221 90.1687 274.299C79.8096 269.119 71.2347 263.114 66.5299 252.342C65.8392 250.762 65.4278 249.027 65.0797 247.329C63.7183 240.701 66.292 235.038 69.8112 229.709C70.8193 228.183 70.7673 227.14 69.5904 225.891C65.4506 221.519 61.3973 217.07 57.2143 212.736C55.2119 210.652 53.7029 210.708 51.6882 212.919C36.1573 230.103 34.6318 253.201 49.8421 271.895C55.4274 278.768 62.8881 283.16 70.7756 286.849C74.6253 288.692 78.1558 289.992 82.1966 291.65ZM82.4356 295.985C83.0675 295 83.5399 294.218 84.0664 293.489C85.8445 290.994 85.6246 290.023 82.8693 288.622C82.4082 288.398 81.9446 288.215 81.4743 288.006C73.9469 284.863 66.7507 281.109 60.0981 276.34C45.962 266.196 38.4891 246.739 45.3841 229.61C47.5465 224.257 50.3233 219.302 54.2869 214.884C58.594 219.332 62.8244 223.693 67.1248 228.116C66.7462 228.699 66.4016 229.259 66.0187 229.776C59.3838 238.346 59.1867 247.491 64.1135 256.746C69.2379 266.39 77.6698 272.46 87.439 276.835C88.4993 277.3 89.6261 277.613 90.7395 277.876C93.1202 278.428 93.4077 277.455 93.3615 275.636C93.3386 274.653 93.0453 272.86 93.0067 271.867C98.7402 277.497 103.854 284.457 107.614 291.204C99.2452 292.804 91.0013 294.372 82.4356 295.985Z" fill="white"/>
</g>
</g>
<defs>
<filter id="filter0_dd_650_51944" x="-7" y="79" width="122" height="122" filterUnits="userSpaceOnUse" color-interpolation-filters="sRGB">
<feFlood flood-opacity="0" result="BackgroundImageFix"/>
<feColorMatrix in="SourceAlpha" type="matrix" values="0 0 0 0 0 0 0 0 0 0 0 0 0 0 0 0 0 0 127 0" result="hardAlpha"/>
<feOffset dy="1"/>
<feGaussianBlur stdDeviation="1.5"/>
<feColorMatrix type="matrix" values="0 0 0 0 0 0 0 0 0 0 0 0 0 0 0 0 0 0 0.3 0"/>
<feBlend mode="normal" in2="BackgroundImageFix" result="effect1_dropShadow_650_51944"/>
<feColorMatrix in="SourceAlpha" type="matrix" values="0 0 0 0 0 0 0 0 0 0 0 0 0 0 0 0 0 0 127 0" result="hardAlpha"/>
<feMorphology radius="3" operator="dilate" in="SourceAlpha" result="effect2_dropShadow_650_51944"/>
<feOffset dy="4"/>
<feGaussianBlur stdDeviation="4"/>
<feColorMatrix type="matrix" values="0 0 0 0 0 0 0 0 0 0 0 0 0 0 0 0 0 0 0.15 0"/>
<feBlend mode="normal" in2="effect1_dropShadow_650_51944" result="effect2_dropShadow_650_51944"/>
<feBlend mode="normal" in="SourceGraphic" in2="effect2_dropShadow_650_51944" result="shape"/>
</filter>
<clipPath id="clip0_650_51944">
<rect width="143" height="414" fill="white"/>
</clipPath>
<clipPath id="clip1_650_51944">
<rect width="105.2" height="105.2" fill="white" transform="matrix(0.5 -0.866025 -0.866025 -0.5 95.457 332.058)"/>
</clipPath>
</defs>
</svg>
