<svg width="1032" height="414" viewBox="0 0 1032 414" fill="none" xmlns="http://www.w3.org/2000/svg">
<g clip-path="url(#clip0_634_350285)">
<g clip-path="url(#clip1_634_350285)">
<g filter="url(#filter0_dd_634_350285)">
<path d="M4 94C4 89.5817 7.58172 86 12 86H96C100.418 86 104 89.5817 104 94V178C104 182.418 100.418 186 96 186H12C7.58172 186 4 182.418 4 178V94Z" fill="#FFAFA3"/>
<path d="M16 106C16 102.686 18.6863 100 22 100H86C89.3137 100 92 102.686 92 106C92 109.314 89.3137 112 86 112H22C18.6863 112 16 109.314 16 106Z" fill="black" fill-opacity="0.1"/>
<path d="M16 126C16 122.686 18.6863 120 22 120H78C81.3137 120 84 122.686 84 126C84 129.314 81.3137 132 78 132H22C18.6863 132 16 129.314 16 126Z" fill="black" fill-opacity="0.1"/>
<path d="M16 146C16 142.686 18.6863 140 22 140H86C89.3137 140 92 142.686 92 146C92 149.314 89.3137 152 86 152H22C18.6863 152 16 149.314 16 146Z" fill="black" fill-opacity="0.1"/>
<path d="M16 166C16 162.686 18.6863 160 22 160H46C49.3137 160 52 162.686 52 166C52 169.314 49.3137 172 46 172H22C18.6863 172 16 169.314 16 166Z" fill="black" fill-opacity="0.1"/>
</g>
<g clip-path="url(#clip2_634_350285)">
<path d="M82.1966 291.65C81.16 292.971 80.4312 294.343 79.6501 295.769C79.1819 296.616 78.4039 297.854 79.3534 298.803C79.7707 299.212 81.1463 299.606 82.0079 299.429C90.8372 297.651 99.6689 295.833 108.467 293.89C110.855 293.37 111.52 292.109 110.234 289.806C107.757 285.403 105.106 281.046 102.111 276.955C99.639 273.566 96.7145 270.486 93.751 267.51C92.2693 266.021 92.2693 266.021 91.2105 266.212C90.6002 266.429 90.2528 268.126 90.2099 269.114C90.1279 270.753 90.0398 272.221 90.1687 274.299C79.8096 269.119 71.2347 263.114 66.5299 252.342C65.8392 250.762 65.4278 249.027 65.0797 247.329C63.7183 240.701 66.292 235.038 69.8112 229.709C70.8193 228.183 70.7673 227.14 69.5904 225.891C65.4506 221.519 61.3973 217.07 57.2143 212.736C55.2119 210.652 53.7029 210.708 51.6882 212.919C36.1573 230.103 34.6318 253.201 49.8421 271.895C55.4274 278.768 62.8881 283.16 70.7756 286.849C74.6253 288.692 78.1558 289.992 82.1966 291.65ZM82.4356 295.985C83.0675 295 83.5399 294.218 84.0664 293.489C85.8445 290.994 85.6246 290.023 82.8693 288.622C82.4082 288.398 81.9446 288.215 81.4743 288.006C73.9469 284.863 66.7507 281.109 60.0981 276.34C45.962 266.196 38.4891 246.739 45.3841 229.61C47.5465 224.257 50.3233 219.302 54.2869 214.884C58.594 219.332 62.8244 223.693 67.1248 228.116C66.7462 228.699 66.4016 229.259 66.0187 229.776C59.3838 238.346 59.1867 247.491 64.1135 256.746C69.2379 266.39 77.6698 272.46 87.439 276.835C88.4993 277.3 89.6261 277.613 90.7395 277.876C93.1202 278.428 93.4077 277.455 93.3615 275.636C93.3386 274.653 93.0453 272.86 93.0067 271.867C98.7402 277.497 103.854 284.457 107.614 291.204C99.2452 292.804 91.0013 294.372 82.4356 295.985Z" fill="#1A1A1A"/>
</g>
</g>
<g clip-path="url(#clip3_634_350285)">
<g filter="url(#filter1_dd_634_350285)">
<path d="M133 263C133 258.582 136.582 255 141 255H225C229.418 255 233 258.582 233 263V347C233 351.418 229.418 355 225 355H141C136.582 355 133 351.418 133 347V263Z" fill="#A8DAFF"/>
<path d="M145 295C145 291.686 147.686 289 151 289H215C218.314 289 221 291.686 221 295C221 298.314 218.314 301 215 301H151C147.686 301 145 298.314 145 295Z" fill="black" fill-opacity="0.1"/>
<path d="M145 315C145 311.686 147.686 309 151 309H175C178.314 309 181 311.686 181 315C181 318.314 178.314 321 175 321H151C147.686 321 145 318.314 145 315Z" fill="black" fill-opacity="0.1"/>
</g>
<g filter="url(#filter2_dd_634_350285)">
<path d="M186 191C186 186.582 189.582 183 194 183H278C282.418 183 286 186.582 286 191V275C286 279.418 282.418 283 278 283H194C189.582 283 186 279.418 186 275V191Z" fill="#FFE5CC"/>
<path d="M198 213C198 209.686 200.686 207 204 207H268C271.314 207 274 209.686 274 213C274 216.314 271.314 219 268 219H204C200.686 219 198 216.314 198 213Z" fill="black" fill-opacity="0.1"/>
<path d="M198 233C198 229.686 200.686 227 204 227H268C271.314 227 274 229.686 274 233C274 236.314 271.314 239 268 239H204C200.686 239 198 236.314 198 233Z" fill="black" fill-opacity="0.1"/>
<path d="M198 253C198 249.686 200.686 247 204 247H228C231.314 247 234 249.686 234 253C234 256.314 231.314 259 228 259H204C200.686 259 198 256.314 198 253Z" fill="black" fill-opacity="0.1"/>
</g>
<g filter="url(#filter3_dd_634_350285)">
<path d="M301 154C301 149.582 304.582 146 309 146H393C397.418 146 401 149.582 401 154V238C401 242.418 397.418 246 393 246H309C304.582 246 301 242.418 301 238V154Z" fill="#F4FFF6"/>
<path d="M313 186C313 182.686 315.686 180 319 180H383C386.314 180 389 182.686 389 186C389 189.314 386.314 192 383 192H319C315.686 192 313 189.314 313 186Z" fill="black" fill-opacity="0.1"/>
<path d="M313 206C313 202.686 315.686 200 319 200H375C378.314 200 381 202.686 381 206C381 209.314 378.314 212 375 212H319C315.686 212 313 209.314 313 206Z" fill="black" fill-opacity="0.1"/>
</g>
<g filter="url(#filter4_dd_634_350285)">
<path d="M225 338C225 333.582 228.582 330 233 330H317C321.418 330 325 333.582 325 338V422C325 426.418 321.418 430 317 430H233C228.582 430 225 426.418 225 422V338Z" fill="#D3BDFF"/>
<path d="M237 360C237 356.686 239.686 354 243 354H299C302.314 354 305 356.686 305 360C305 363.314 302.314 366 299 366H243C239.686 366 237 363.314 237 360Z" fill="black" fill-opacity="0.1"/>
<path d="M237 380C237 376.686 239.686 374 243 374H307C310.314 374 313 376.686 313 380C313 383.314 310.314 386 307 386H243C239.686 386 237 383.314 237 380Z" fill="black" fill-opacity="0.1"/>
<path d="M237 400C237 396.686 239.686 394 243 394H267C270.314 394 273 396.686 273 400C273 403.314 270.314 406 267 406H243C239.686 406 237 403.314 237 400Z" fill="black" fill-opacity="0.1"/>
</g>
<path d="M367.969 86.5284C367.745 86.5284 367.545 86.4404 367.369 86.2644C367.209 86.0724 367.129 85.7284 367.129 85.2324C367.129 84.8804 367.193 84.3284 367.321 83.5764C367.449 82.8244 367.625 81.9604 367.849 80.9844C368.089 79.9924 368.361 78.9604 368.665 77.8884C368.969 76.8004 369.297 75.7364 369.649 74.6964C370.001 73.6404 370.361 72.6884 370.729 71.8404C370.905 71.4244 371.177 71.1124 371.545 70.9044C371.929 70.6804 372.345 70.5684 372.793 70.5684C373.257 70.5684 373.593 70.7844 373.801 71.2164C374.009 71.6484 374.113 72.1204 374.113 72.6324C374.113 72.8244 374.017 73.1844 373.825 73.7124C373.649 74.2404 373.409 74.8804 373.105 75.6324C372.801 76.3844 372.465 77.2004 372.097 78.0804C371.745 78.9444 371.385 79.8244 371.017 80.7204C370.665 81.6004 370.337 82.4404 370.033 83.2404C369.729 84.0404 369.481 84.7444 369.289 85.3524C369.161 85.7844 368.985 86.0884 368.761 86.2644C368.553 86.4404 368.289 86.5284 367.969 86.5284ZM366.721 93.2244C366.529 93.2244 366.305 93.1764 366.049 93.0804C365.793 92.9844 365.569 92.7524 365.377 92.3844C365.201 92.0324 365.113 91.4644 365.113 90.6804C365.113 90.0724 365.305 89.6084 365.689 89.2884C366.073 88.9684 366.585 88.8084 367.225 88.8084C367.769 88.8084 368.185 88.9604 368.473 89.2644C368.777 89.5684 368.929 90.0004 368.929 90.5604C368.929 91.0724 368.801 91.5284 368.545 91.9284C368.305 92.3284 368.009 92.6404 367.657 92.8644C367.321 93.1044 367.009 93.2244 366.721 93.2244Z" fill="#333333"/>
<path d="M358.05 79.1601C358.93 77.0641 359.706 74.9041 360.378 72.6801C360.506 72.2321 360.69 71.8881 360.93 71.6481C361.186 71.4081 361.538 71.2881 361.986 71.2881C362.354 71.2881 362.634 71.4001 362.826 71.6241C363.018 71.8321 363.114 72.1201 363.114 72.4881C363.114 72.7921 362.986 73.3361 362.73 74.1201C362.474 74.8881 362.162 75.8641 361.794 77.0481C361.426 78.2321 361.058 79.6001 360.69 81.1521C360.322 82.7041 360.01 84.4081 359.754 86.2641C359.498 88.1201 359.37 90.1041 359.37 92.2161C359.37 92.7921 359.258 93.2641 359.034 93.6321C358.826 94.0161 358.458 94.2081 357.93 94.2081C357.354 94.2081 356.93 94.0081 356.658 93.6081C356.402 93.2081 356.274 92.6961 356.274 92.0721C356.274 90.8401 356.314 89.8161 356.394 89.0001C356.49 88.1681 356.586 87.4561 356.682 86.8641C355.898 88.2081 355.066 89.3681 354.186 90.3441C353.322 91.3041 352.49 92.0401 351.69 92.5521C350.89 93.0801 350.202 93.3441 349.626 93.3441C348.682 93.3441 347.914 93.0801 347.322 92.5521C346.73 92.0241 346.434 91.2241 346.434 90.1521C346.434 89.3201 346.634 88.4641 347.034 87.5841C347.434 86.6881 347.962 85.8081 348.618 84.9441C349.274 84.0801 349.994 83.2721 350.778 82.5201C351.578 81.7521 352.378 81.0801 353.178 80.5041C353.978 79.9121 354.722 79.4481 355.41 79.1121C356.098 78.7761 356.658 78.6081 357.09 78.6081C357.57 78.6081 357.89 78.7921 358.05 79.1601ZM357.498 80.4561C357.402 80.5201 357.298 80.5841 357.186 80.6481C357.09 80.6961 356.994 80.7521 356.898 80.8161C356.29 81.2001 355.642 81.6641 354.954 82.2081C354.266 82.7361 353.586 83.3281 352.914 83.9841C352.242 84.6241 351.626 85.2961 351.066 86.0001C350.522 86.6881 350.082 87.3761 349.746 88.0641C349.426 88.7361 349.266 89.3841 349.266 90.0081C349.266 90.1201 349.314 90.2001 349.41 90.2481C349.506 90.2961 349.594 90.3201 349.674 90.3201C350.234 90.3201 350.834 90.0721 351.474 89.5761C352.13 89.0801 352.794 88.3921 353.466 87.5121C354.154 86.6161 354.834 85.5681 355.506 84.3681C356.194 83.1681 356.858 81.8641 357.498 80.4561Z" fill="#333333"/>
<path d="M341.459 93.0801C341.091 93.0801 340.755 92.9281 340.451 92.6241C340.163 92.3361 340.019 91.8481 340.019 91.1601C340.019 90.6481 340.059 89.9361 340.139 89.0241C340.235 88.0961 340.411 86.9041 340.667 85.4481C340.107 86.6001 339.523 87.6241 338.915 88.5201C338.307 89.4161 337.707 90.1201 337.115 90.6321C336.539 91.1281 335.987 91.3761 335.459 91.3761C334.611 91.3761 333.939 91.1201 333.443 90.6081C332.947 90.0801 332.699 89.0961 332.699 87.6561C332.699 86.9681 332.755 86.1921 332.867 85.3281C332.995 84.4641 333.155 83.6001 333.347 82.7361C333.539 81.8721 333.731 81.1041 333.923 80.4321C334.131 79.7441 334.315 79.2321 334.475 78.8961C334.603 78.6081 334.763 78.3841 334.955 78.2241C335.163 78.0641 335.427 77.9841 335.747 77.9841C336.259 77.9841 336.651 78.1521 336.923 78.4881C337.195 78.8241 337.331 79.1681 337.331 79.5201C337.331 79.7921 337.267 80.1841 337.139 80.6961C337.027 81.2081 336.883 81.7761 336.707 82.4001C336.547 83.0241 336.379 83.6641 336.203 84.3201C336.027 84.9761 335.875 85.5921 335.747 86.1681C335.635 86.7441 335.579 87.2321 335.579 87.6321C335.579 88.1281 335.771 88.3761 336.155 88.3761C336.379 88.3761 336.667 88.1601 337.019 87.7281C337.387 87.2961 337.771 86.7201 338.171 86.0001C338.587 85.2641 339.003 84.4641 339.419 83.6001C339.851 82.7201 340.243 81.8321 340.595 80.9361C340.963 80.0241 341.275 79.1841 341.531 78.4161C341.691 77.9361 341.907 77.6001 342.179 77.4081C342.451 77.2161 342.763 77.1201 343.115 77.1201C343.659 77.1201 344.075 77.2721 344.363 77.5761C344.667 77.8801 344.819 78.3121 344.819 78.8721C344.819 79.1281 344.779 79.5601 344.699 80.1681C344.619 80.7761 344.515 81.4881 344.387 82.3041C344.275 83.1201 344.139 83.9841 343.979 84.8961C343.819 85.8081 343.659 86.7041 343.499 87.5841C343.355 88.4641 343.211 89.2721 343.067 90.0081C342.923 90.7281 342.803 91.3041 342.707 91.7361C342.547 92.3761 342.355 92.7601 342.131 92.8881C341.907 93.0161 341.683 93.0801 341.459 93.0801Z" fill="#333333"/>
<path d="M322.007 92.7918C320.871 92.7918 319.959 92.3918 319.271 91.5918C318.583 90.7758 318.239 89.6878 318.239 88.3278C318.239 87.8958 318.295 87.4558 318.407 87.0078C318.535 86.5598 318.687 86.1438 318.863 85.7598C318.767 85.6158 318.687 85.4318 318.623 85.2078C318.575 84.9678 318.551 84.6878 318.551 84.3678C318.551 83.3278 318.735 82.3758 319.103 81.5118C319.471 80.6318 319.967 79.8718 320.591 79.2318C321.215 78.5918 321.903 78.0958 322.655 77.7438C323.407 77.3918 324.167 77.2158 324.935 77.2158C326.247 77.2158 327.319 77.6558 328.151 78.5358C328.999 79.4158 329.423 80.7838 329.423 82.6398C329.423 83.5678 329.279 84.5118 328.991 85.4718C328.703 86.4318 328.311 87.3518 327.815 88.2318C327.335 89.0958 326.775 89.8718 326.135 90.5598C325.511 91.2478 324.839 91.7918 324.119 92.1918C323.415 92.5918 322.711 92.7918 322.007 92.7918ZM321.623 84.6798C321.703 84.8558 321.743 85.0638 321.743 85.3038C321.743 85.5438 321.695 85.7918 321.599 86.0478C321.503 86.3038 321.407 86.6478 321.311 87.0798C321.215 87.4958 321.167 88.0958 321.167 88.8798C321.167 89.0878 321.191 89.2638 321.239 89.4078C321.303 89.5358 321.439 89.5998 321.647 89.5998C322.191 89.5998 322.703 89.4238 323.183 89.0718C323.679 88.7198 324.119 88.2558 324.503 87.6798C324.903 87.1038 325.239 86.4638 325.511 85.7598C325.799 85.0398 326.015 84.3118 326.159 83.5758C326.319 82.8238 326.399 82.1278 326.399 81.4878C326.399 81.0718 326.319 80.7838 326.159 80.6238C325.999 80.4638 325.719 80.3838 325.319 80.3838C324.775 80.3838 324.215 80.5598 323.639 80.9118C323.079 81.2478 322.607 81.7118 322.223 82.3038C321.839 82.8798 321.647 83.5358 321.647 84.2718C321.647 84.4158 321.639 84.5518 321.623 84.6798Z" fill="#333333"/>
<path d="M310.282 93.2004C308.842 93.2004 307.706 92.7604 306.874 91.8804C306.058 90.9844 305.65 89.7124 305.65 88.0644C305.65 87.1684 305.77 86.1204 306.01 84.9204C306.25 83.7044 306.562 82.4244 306.946 81.0804C307.346 79.7204 307.77 78.3764 308.218 77.0484C308.682 75.7204 309.138 74.4884 309.586 73.3524C310.034 72.2164 310.426 71.2644 310.762 70.4964C311.05 69.9044 311.458 69.6084 311.986 69.6084C312.322 69.6084 312.594 69.7124 312.802 69.9204C313.026 70.1284 313.138 70.4644 313.138 70.9284C313.138 71.1524 313.026 71.6404 312.802 72.3924C312.578 73.1444 312.282 74.0724 311.914 75.1764C311.562 76.2644 311.178 77.4404 310.762 78.7044C310.362 79.9684 309.978 81.2404 309.61 82.5204C309.258 83.8004 308.97 85.0084 308.746 86.1444C308.522 87.2644 308.41 88.2164 308.41 89.0004C308.41 89.3204 308.498 89.5764 308.674 89.7684C308.866 89.9604 309.114 90.0564 309.418 90.0564C310.074 90.0564 310.746 89.9364 311.434 89.6964C312.138 89.4564 312.826 89.1524 313.498 88.7844C314.186 88.4164 314.834 88.0244 315.442 87.6084C316.05 87.1924 316.594 86.8004 317.074 86.4324C317.57 86.0484 317.97 85.7444 318.274 85.5204C318.674 85.2164 318.946 85.0644 319.09 85.0644C319.634 85.0644 319.906 85.3284 319.906 85.8564C319.906 85.9844 319.746 86.2484 319.426 86.6484C319.154 87.0004 318.77 87.4484 318.274 87.9924C317.778 88.5364 317.202 89.1124 316.546 89.7204C315.906 90.3124 315.218 90.8724 314.482 91.4004C313.762 91.9284 313.042 92.3604 312.322 92.6964C311.602 93.0324 310.922 93.2004 310.282 93.2004Z" fill="#333333"/>
<path d="M288.223 92.9117C287.711 92.9117 287.247 92.7677 286.831 92.4797C286.415 92.2077 286.087 91.8477 285.847 91.3997C285.607 90.9357 285.487 90.4397 285.487 89.9117C285.487 88.9197 285.703 87.9517 286.135 87.0077C286.583 86.0637 287.167 85.1677 287.887 84.3197C288.607 83.4717 289.391 82.6957 290.239 81.9917C291.103 81.2717 291.959 80.6557 292.807 80.1437C293.671 79.6317 294.455 79.2317 295.159 78.9437C295.879 78.6557 296.439 78.5117 296.839 78.5117C297.303 78.5117 297.679 78.6157 297.967 78.8237C298.271 79.0157 298.423 79.3197 298.423 79.7357C298.423 79.8637 298.391 79.9677 298.327 80.0477C298.535 80.0957 298.703 80.2157 298.831 80.4077C298.959 80.5997 299.023 80.8877 299.023 81.2717C299.023 81.4317 298.983 81.8477 298.903 82.5197C298.823 83.1917 298.735 84.0077 298.639 84.9677C298.559 85.9277 298.519 86.9277 298.519 87.9677C298.519 88.1277 298.543 88.2717 298.591 88.3997C298.639 88.5117 298.743 88.5677 298.903 88.5677C299.543 88.5677 300.191 88.4397 300.847 88.1837C301.519 87.9117 302.167 87.5837 302.791 87.1997C303.431 86.7997 304.007 86.4077 304.519 86.0237C305.047 85.6237 305.487 85.2957 305.839 85.0397C306.207 84.7677 306.447 84.6317 306.559 84.6317C307.103 84.6317 307.375 84.9037 307.375 85.4477C307.375 85.5917 307.199 85.8957 306.847 86.3597C306.511 86.8077 306.047 87.3277 305.455 87.9197C304.863 88.4957 304.199 89.0717 303.463 89.6477C302.743 90.2077 301.991 90.6717 301.207 91.0397C300.439 91.4077 299.695 91.5917 298.975 91.5917C298.095 91.5917 297.423 91.3837 296.959 90.9677C296.511 90.5517 296.191 89.9917 295.999 89.2877C295.823 88.5677 295.727 87.7597 295.711 86.8637C294.895 88.0317 294.047 89.0717 293.167 89.9837C292.303 90.8797 291.447 91.5917 290.599 92.1197C289.751 92.6477 288.959 92.9117 288.223 92.9117ZM296.719 80.8877C295.151 81.6397 293.743 82.5037 292.495 83.4797C291.247 84.4397 290.255 85.4477 289.519 86.5037C288.799 87.5597 288.439 88.5757 288.439 89.5517C288.439 89.8237 288.567 89.9597 288.823 89.9597C289.127 89.9597 289.527 89.7837 290.023 89.4317C290.535 89.0797 291.087 88.6157 291.679 88.0397C292.271 87.4477 292.863 86.7917 293.455 86.0717C294.047 85.3357 294.599 84.5837 295.111 83.8157C295.623 83.0477 296.031 82.3117 296.335 81.6077C296.447 81.3517 296.575 81.1117 296.719 80.8877Z" fill="#333333"/>
<path d="M267.09 93.752C266.002 93.752 264.994 93.52 264.066 93.056C263.138 92.608 262.29 92.016 261.522 91.28C260.754 90.528 260.066 89.712 259.458 88.832C258.866 87.936 258.362 87.056 257.946 86.192C257.754 87.072 257.578 87.824 257.418 88.448C257.274 89.072 257.154 89.592 257.058 90.008C256.978 90.328 256.89 90.64 256.794 90.944C256.714 91.248 256.586 91.496 256.41 91.688C256.234 91.88 255.986 91.976 255.666 91.976C254.978 91.976 254.538 91.744 254.346 91.28C254.154 90.8 254.058 90.192 254.058 89.456C254.058 88.8 254.162 87.936 254.37 86.864C254.594 85.792 254.89 84.592 255.258 83.264C255.626 81.936 256.05 80.568 256.53 79.16C257.026 77.736 257.554 76.352 258.114 75.008C258.674 73.648 259.234 72.416 259.794 71.312C260.146 70.64 260.458 70.216 260.73 70.04C261.002 69.848 261.322 69.752 261.69 69.752C262.058 69.752 262.338 69.848 262.53 70.04C262.722 70.232 262.818 70.488 262.818 70.808C262.818 71.016 262.77 71.224 262.674 71.432C262.578 71.64 262.474 71.896 262.362 72.2C261.994 73.016 261.61 73.968 261.21 75.056C260.81 76.128 260.426 77.24 260.058 78.392C259.69 79.528 259.362 80.608 259.074 81.632C259.858 81.168 260.73 80.72 261.69 80.288C262.65 79.84 263.618 79.44 264.594 79.088C265.586 78.72 266.514 78.432 267.378 78.224C268.242 78.016 268.97 77.912 269.562 77.912C270.026 77.912 270.378 78.048 270.618 78.32C270.858 78.592 270.978 78.888 270.978 79.208C270.978 79.448 270.906 79.688 270.762 79.928C270.618 80.168 270.314 80.376 269.85 80.552C268.314 81.064 266.786 81.584 265.266 82.112C263.762 82.64 262.09 83.264 260.25 83.984C260.634 84.736 261.082 85.512 261.594 86.312C262.106 87.096 262.658 87.832 263.25 88.52C263.842 89.192 264.45 89.744 265.074 90.176C265.698 90.592 266.314 90.8 266.922 90.8C267.818 90.8 268.682 90.624 269.514 90.272C270.346 89.904 271.114 89.464 271.818 88.952C272.522 88.424 273.138 87.912 273.666 87.416C274.21 86.92 274.634 86.536 274.938 86.264C275.114 86.088 275.282 85.96 275.442 85.88C275.618 85.8 275.834 85.76 276.09 85.76C276.394 85.76 276.626 85.856 276.786 86.048C276.962 86.224 277.042 86.456 277.026 86.744C277.01 87.016 276.874 87.288 276.618 87.56C276.41 87.784 276.082 88.144 275.634 88.64C275.202 89.12 274.674 89.656 274.05 90.248C273.442 90.824 272.762 91.384 272.01 91.928C271.274 92.456 270.49 92.888 269.658 93.224C268.826 93.576 267.97 93.752 267.09 93.752Z" fill="#333333"/>
<path d="M235.889 91.9998C235.505 91.9998 235.121 91.8718 234.737 91.6158C234.369 91.3438 234.065 90.9598 233.825 90.4638C233.585 89.9518 233.465 89.3358 233.465 88.6158C233.465 87.6558 233.593 86.6318 233.849 85.5438C234.121 84.4558 234.449 83.3678 234.833 82.2798C235.217 81.1918 235.593 80.1678 235.961 79.2078C236.137 78.7438 236.353 78.4318 236.609 78.2718C236.865 78.0958 237.201 78.0078 237.617 78.0078C238.561 78.0078 239.033 78.4798 239.033 79.4238C239.033 79.5838 238.961 79.8958 238.817 80.3598C238.673 80.8078 238.481 81.3598 238.241 82.0158C238.017 82.6718 237.777 83.3838 237.521 84.1518C237.281 84.9038 237.057 85.6718 236.849 86.4558C236.657 87.2238 236.505 87.9518 236.393 88.6398C236.761 88.0798 237.169 87.3838 237.617 86.5518C238.081 85.7038 238.569 84.8158 239.081 83.8878C239.609 82.9598 240.137 82.0958 240.665 81.2958C241.193 80.4798 241.713 79.8158 242.225 79.3038C242.737 78.7918 243.225 78.5358 243.689 78.5358C244.089 78.5358 244.465 78.6158 244.817 78.7758C245.185 78.9198 245.505 79.2078 245.777 79.6398C246.049 80.0558 246.257 80.6558 246.401 81.4398C246.561 82.2238 246.641 83.2558 246.641 84.5358C246.641 85.1758 246.697 85.7998 246.809 86.4078C246.937 86.9998 247.145 87.4958 247.433 87.8958C247.721 88.2798 248.129 88.4718 248.657 88.4718C249.569 88.4718 250.385 88.3038 251.105 87.9678C251.825 87.6318 252.457 87.2398 253.001 86.7918C253.545 86.3438 254.001 85.9518 254.369 85.6158C254.593 85.3918 254.785 85.2158 254.945 85.0878C255.121 84.9598 255.265 84.8958 255.377 84.8958C255.713 84.8958 255.953 84.9838 256.097 85.1598C256.257 85.3358 256.337 85.5758 256.337 85.8798C256.337 86.0398 256.201 86.3358 255.929 86.7678C255.657 87.1998 255.273 87.6958 254.777 88.2558C254.297 88.7998 253.745 89.3278 253.121 89.8398C252.497 90.3518 251.825 90.7758 251.105 91.1118C250.385 91.4478 249.649 91.6158 248.897 91.6158C247.633 91.6158 246.585 91.3918 245.753 90.9438C244.937 90.4798 244.329 89.7118 243.929 88.6398C243.529 87.5518 243.329 86.0718 243.329 84.1998C243.329 84.1518 243.329 84.0718 243.329 83.9598C243.329 83.4638 243.321 83.0238 243.305 82.6398C243.305 82.2558 243.281 81.9438 243.233 81.7038C242.961 82.1998 242.633 82.7918 242.249 83.4798C241.881 84.1678 241.481 84.9038 241.049 85.6878C240.617 86.4558 240.169 87.2158 239.705 87.9678C239.241 88.7038 238.777 89.3758 238.313 89.9838C237.865 90.5918 237.433 91.0798 237.017 91.4478C236.601 91.8158 236.225 91.9998 235.889 91.9998Z" fill="#333333"/>
<path d="M227.168 92.3598C226.72 92.3598 226.32 92.2078 225.968 91.9038C225.632 91.5998 225.464 91.1038 225.464 90.4158C225.464 90.0478 225.512 89.5278 225.608 88.8558C225.72 88.1838 225.864 87.4558 226.04 86.6718C226.216 85.8718 226.408 85.0798 226.616 84.2958C226.84 83.5118 227.056 82.8158 227.264 82.2078C227.472 81.5838 227.656 81.1198 227.816 80.8158C228.024 80.4478 228.216 80.2238 228.392 80.1438C228.584 80.0478 228.768 79.9998 228.944 79.9998C229.264 79.9998 229.56 80.0958 229.832 80.2878C230.12 80.4798 230.264 80.9038 230.264 81.5598C230.264 81.8158 230.216 82.2318 230.12 82.8078C230.024 83.3678 229.904 84.0238 229.76 84.7758C229.616 85.5278 229.456 86.3038 229.28 87.1038C229.12 87.9038 228.96 88.6638 228.8 89.3838C228.656 90.0878 228.536 90.6798 228.44 91.1598C228.36 91.5598 228.192 91.8558 227.936 92.0478C227.696 92.2558 227.44 92.3598 227.168 92.3598ZM229.928 77.6238C229.4 77.6238 228.912 77.4718 228.464 77.1678C228.016 76.8478 227.792 76.3598 227.792 75.7038C227.792 75.1598 227.928 74.7198 228.2 74.3838C228.472 74.0478 228.792 73.8078 229.16 73.6638C229.544 73.5038 229.88 73.4238 230.168 73.4238C230.456 73.4238 230.776 73.4878 231.128 73.6158C231.48 73.7278 231.784 73.9438 232.04 74.2638C232.312 74.5678 232.448 75.0078 232.448 75.5838C232.448 75.9678 232.312 76.3198 232.04 76.6398C231.768 76.9438 231.432 77.1838 231.032 77.3598C230.648 77.5358 230.28 77.6238 229.928 77.6238Z" fill="#333333"/>
<path d="M206.011 93.8724C205.275 93.8724 204.747 93.6644 204.427 93.2484C204.107 92.8324 203.947 92.2244 203.947 91.4244C203.947 90.6884 204.083 89.7284 204.355 88.5444C204.643 87.3444 205.019 86.0084 205.483 84.5364C205.963 83.0484 206.499 81.5204 207.091 79.9524C207.683 78.3684 208.299 76.8164 208.939 75.2964C209.579 73.7604 210.203 72.3524 210.811 71.0724C211.099 70.5124 211.403 70.1284 211.723 69.9204C212.043 69.7124 212.395 69.6084 212.779 69.6084C213.147 69.6084 213.459 69.7124 213.715 69.9204C213.971 70.1124 214.099 70.4244 214.099 70.8564C214.099 70.9524 213.971 71.3204 213.715 71.9604C213.459 72.5844 213.123 73.4004 212.707 74.4084C212.291 75.4004 211.835 76.5204 211.339 77.7684C210.843 79.0004 210.347 80.2884 209.851 81.6324C209.355 82.9604 208.907 84.2724 208.507 85.5684C208.107 86.8644 207.787 88.0644 207.547 89.1684C208.107 88.4164 208.707 87.5844 209.347 86.6724C210.003 85.7444 210.667 84.8244 211.339 83.9124C212.027 82.9844 212.699 82.1364 213.355 81.3684C214.027 80.6004 214.651 79.9844 215.227 79.5204C215.803 79.0564 216.307 78.8244 216.739 78.8244C217.539 78.8244 218.179 79.0484 218.659 79.4964C219.155 79.9284 219.403 80.6804 219.403 81.7524C219.403 82.2484 219.307 82.8484 219.115 83.5524C218.923 84.2404 218.691 84.9684 218.419 85.7364C218.163 86.4884 217.939 87.2164 217.747 87.9204C217.555 88.6244 217.459 89.2404 217.459 89.7684C217.459 90.0564 217.595 90.2004 217.867 90.2004C218.651 90.2004 219.443 90.0324 220.243 89.6964C221.059 89.3604 221.835 88.9444 222.571 88.4484C223.323 87.9364 224.003 87.4324 224.611 86.9364C225.235 86.4244 225.739 86.0004 226.123 85.6644C226.395 85.4084 226.643 85.2404 226.867 85.1604C227.091 85.0644 227.299 85.0164 227.491 85.0164C228.147 85.0164 228.475 85.3444 228.475 86.0004C228.475 86.1284 228.451 86.2884 228.403 86.4804C228.355 86.6564 228.203 86.8804 227.947 87.1524C227.691 87.4244 227.307 87.8084 226.795 88.3044C226.283 88.8004 225.683 89.3284 224.995 89.8884C224.323 90.4484 223.587 90.9844 222.787 91.4964C222.003 91.9924 221.195 92.4004 220.363 92.7204C219.531 93.0404 218.723 93.2004 217.939 93.2004C216.755 93.2004 215.843 92.8644 215.203 92.1924C214.563 91.5364 214.243 90.6404 214.243 89.5044C214.243 88.7204 214.403 87.7364 214.723 86.5524C215.043 85.3524 215.403 84.1284 215.803 82.8804C215.243 83.4244 214.659 84.0724 214.051 84.8244C213.443 85.5604 212.827 86.3444 212.203 87.1764C211.579 87.9924 210.963 88.8004 210.355 89.6004C209.763 90.3844 209.195 91.1044 208.651 91.7604C208.107 92.4004 207.611 92.9124 207.163 93.2964C206.715 93.6804 206.331 93.8724 206.011 93.8724Z" fill="#333333"/>
<path d="M188.248 77.3839C187.48 77.3839 186.912 77.3119 186.544 77.1679C186.192 77.0079 185.96 76.8239 185.848 76.6159C185.752 76.3919 185.704 76.1919 185.704 76.0159C185.704 75.7919 185.832 75.5359 186.088 75.2479C186.344 74.9439 186.84 74.7199 187.576 74.5759C188.312 74.4159 189.184 74.2719 190.192 74.1439C191.2 73.9999 192.272 73.8799 193.408 73.7839C194.544 73.6719 195.696 73.5759 196.864 73.4959C198.032 73.4159 199.144 73.3599 200.2 73.3279C201.256 73.2799 202.192 73.2559 203.008 73.2559C203.856 73.2559 204.512 73.3039 204.976 73.3999C205.44 73.4959 205.768 73.6159 205.96 73.7599C206.168 73.9039 206.288 74.0559 206.32 74.2159C206.368 74.3759 206.392 74.5279 206.392 74.6719C206.392 74.7039 206.392 74.7279 206.392 74.7439C206.392 74.9359 206.344 75.1439 206.248 75.3679C206.168 75.5919 205.984 75.7839 205.696 75.9439C205.408 76.0879 204.976 76.1599 204.4 76.1599C204.192 76.1599 203.728 76.1919 203.008 76.2559C202.288 76.3199 201.408 76.3999 200.368 76.4959C199.328 76.5919 198.224 76.6879 197.056 76.7839C196.88 77.5039 196.68 78.3439 196.456 79.3039C196.248 80.2639 196.032 81.2719 195.808 82.3279C195.6 83.3839 195.4 84.4239 195.208 85.4479C195.016 86.4559 194.856 87.3919 194.728 88.2559C194.6 89.1039 194.512 89.7999 194.464 90.3439C194.4 91.0799 194.184 91.5999 193.816 91.9039C193.464 92.1919 193.112 92.3359 192.76 92.3359C192.504 92.3359 192.248 92.2799 191.992 92.1679C191.736 92.0719 191.528 91.8559 191.368 91.5199C191.208 91.1679 191.128 90.6479 191.128 89.9599C191.128 89.2559 191.192 88.3919 191.32 87.3679C191.448 86.3279 191.616 85.2159 191.824 84.0319C192.048 82.8479 192.296 81.6559 192.568 80.4559C192.856 79.2559 193.152 78.1359 193.456 77.0959C192.384 77.1759 191.392 77.2479 190.48 77.3119C189.568 77.3599 188.824 77.3839 188.248 77.3839Z" fill="#333333"/>
<path d="M370.386 102.445C370.786 102.517 371.144 102.741 371.384 103.069C371.624 103.398 371.728 103.806 371.675 104.21C371.566 104.806 371.26 105.35 370.807 105.753C370.281 106.251 369.716 106.708 369.119 107.119C368.446 107.627 367.466 108.361 366.736 108.789C365.853 109.308 360.73 112.053 359.968 112.385C358.835 112.879 355.807 113.903 355.234 114.073C354.83 114.181 354.427 114.289 353.984 114.408C354.634 116.016 353.87 117.213 353.132 118.089C352.468 118.877 351.529 119.285 350.62 119.791C349.002 120.678 347.32 121.442 345.587 122.077C340.239 124.126 334.638 125.23 329.139 126.779C327.958 127.115 326.752 127.369 325.554 127.641C322.746 128.28 319.939 128.908 317.134 129.524C316.32 129.703 309.591 130.854 308.825 130.928C307.886 131.019 303.988 131.434 303.053 131.492C301.847 131.576 298.2 131.721 297.608 131.725C297.016 131.73 296.37 131.69 295.753 131.685C295.243 131.678 293.061 131.604 292.484 131.578C292.101 131.556 291.721 131.553 291.338 131.531C290.308 131.48 289.272 131.403 288.243 131.326C288.13 131.32 287.879 131.279 287.643 131.24C287.453 131.214 287.276 131.127 287.139 130.992C287.002 130.857 286.912 130.681 286.882 130.491C286.768 129.663 288.027 129.529 288.192 129.511C288.71 129.502 289.227 129.529 289.741 129.594C290.075 129.619 290.375 129.699 290.692 129.709C291.895 129.747 293.101 129.761 294.319 129.795C295.235 129.825 302.784 129.598 303.582 129.528C304.379 129.459 312.496 128.45 313.79 128.267C313.906 128.236 314.025 128.227 314.142 128.199C317.909 127.344 321.699 126.581 325.449 125.648C331.183 124.223 336.908 122.737 342.624 121.19C347.943 119.375 350.98 117.578 351.81 116.861C352.252 116.566 352.833 115.237 352.111 115.195L351.325 115.405C348.473 116.17 345.641 117.033 342.755 117.656C341.206 117.989 339.553 117.934 338.151 116.858C337.223 116.144 336.967 115.092 336.988 114.084C337.007 112.932 337.766 112.096 338.925 111.737C342.232 110.716 343.711 110.782 344.575 110.816C345.53 110.826 346.483 110.914 347.424 111.081C348.478 111.305 349.515 111.606 350.525 111.98C351.12 112.194 351.652 112.589 352.23 112.863C352.422 112.932 352.631 112.936 352.825 112.874C353.872 112.574 354.92 112.28 355.953 111.928C356.719 111.667 357.467 111.355 358.216 111.046C358.807 110.803 359.77 110.387 360.352 110.127C360.934 109.866 361.524 109.609 362.076 109.337C362.943 108.902 363.809 108.466 364.645 107.993C365.583 107.457 366.518 106.912 367.396 106.29C368.147 105.726 368.868 105.124 369.557 104.486C369.604 104.443 369.643 104.392 369.67 104.334C369.795 104.099 369.823 103.825 369.747 103.57C369.672 103.401 369.647 103.213 369.677 103.031C369.707 102.848 369.789 102.678 369.914 102.542C369.979 102.489 370.056 102.452 370.138 102.435C370.22 102.418 370.305 102.422 370.386 102.445ZM349.956 113.816C349.703 113.687 349.444 113.572 349.179 113.471C348.288 113.192 344.975 112.579 344.245 112.604C343.235 112.63 342.231 112.754 341.245 112.976C340.742 113.07 340.246 113.203 339.763 113.373C339.436 113.508 339.176 113.766 339.037 114.091C338.899 114.416 338.894 114.782 339.023 115.111C339.187 115.503 339.474 115.645 340.088 115.809C340.909 115.999 341.761 116.01 342.586 115.84C344.875 115.309 349.688 113.918 349.952 113.801L349.956 113.816Z" fill="#1A1A1A"/>
<path d="M460.278 176.545C459.356 175.267 458.411 174.034 457.567 172.745C457.278 172.312 456.756 171.689 457.078 171.2C457.333 170.945 458.044 171.089 458.511 171.156C463.9 171.934 469.144 173.267 474.078 175.634C476.4 176.745 476.656 177.223 476.089 179.623C474.9 184.689 473.067 189.478 470.544 194C470.433 194.189 469.589 195.412 469.2 195C468.344 193.189 467.533 191.478 466.689 189.678C465.733 190.245 464.833 190.778 463.933 191.312C453.956 197.212 444.133 203.356 435.311 210.945C433.233 212.734 431.167 214.534 429.089 216.323C428.067 217.212 427.622 217.2 426.789 215.978C425.367 213.9 423.978 211.789 422.689 209.634C421.078 206.945 419.589 204.178 418.056 201.445C417.378 200.245 417.478 199.245 418.578 198.289C426.633 191.267 435.278 185.178 445.411 181.512C450.278 179.745 455.211 178.223 460.278 176.545ZM460.078 173.3C460.944 174.123 461.844 174.923 462.644 175.8C463.344 176.556 463.133 177.478 462.167 177.845C461.056 178.267 459.956 178.734 458.822 179.123C445.444 183.712 432.811 189.723 421.811 198.8C421.389 199.156 420.944 199.489 420.678 199.7C423.278 204.623 425.789 209.367 428.289 214.089C430.622 211.967 432.822 209.867 435.122 207.856C444.678 199.512 455.5 193.112 466.8 187.445C467.756 186.967 468.367 187.289 468.711 188.145C469.189 189.312 470.122 191.889 470.122 191.889C471.833 187.3 473.6 182.567 475.333 177.934C475.356 177.867 475.322 177.778 475.256 177.745C470.2 175.556 465.344 173.945 460.122 173.212C460.078 173.212 460.056 173.267 460.078 173.3Z" fill="#1A1A1A"/>
<path d="M385.501 55.2595C385.718 54.3928 385.845 53.6886 386.079 53.0025C388.426 46.0692 392.2 39.8942 396.497 34.0261C397.003 33.34 397.635 32.69 398.339 32.2567C398.718 32.022 399.476 32.0581 399.91 32.2928C400.235 32.4733 400.47 33.1775 400.397 33.5747C400.271 34.3331 400 35.1095 399.621 35.7956C397.129 40.3275 394.62 44.8414 392.074 49.3372C391.117 51.0164 390.106 52.6775 389.113 54.3386C388.788 54.8983 388.426 55.44 388.047 55.9456C387.632 56.5233 387 56.8664 386.368 56.4872C385.953 56.2345 385.501 56.0539 385.501 55.2595Z" fill="#333333"/>
<path d="M411.068 82.1441C410.202 81.9997 409.191 81.8913 408.216 81.6747C404.37 80.808 400.524 79.9413 396.696 79.0385C395.866 78.8399 395.053 78.4969 394.313 78.0997C393.32 77.576 392.977 76.8358 393.139 76.0233C393.302 75.2108 393.952 74.7052 395.089 74.6872C395.866 74.6691 396.696 74.6872 397.436 74.8677C402.293 76.0955 407.15 77.3594 411.989 78.6413C412.531 78.7858 413.091 79.0385 413.506 79.3997C414.553 80.2844 414.228 81.6747 412.892 82.0177C412.368 82.1441 411.773 82.0899 411.068 82.1441Z" fill="#333333"/>
<path d="M360.332 33.737C360.404 32.8884 360.585 32.0398 360.801 31.2092C361 30.4689 361.506 29.9453 362.318 29.8731C363.004 29.8189 363.744 30.5051 363.853 31.4078C363.997 32.6176 364.124 33.8453 364.069 35.0551C363.907 38.7023 363.672 42.3676 363.419 46.0148C363.329 47.2245 363.167 48.4342 362.968 49.644C362.896 50.0592 362.751 50.4926 362.517 50.8176C361.885 51.7384 360.729 51.6662 360.278 50.6731C360.025 50.1134 359.917 49.4273 359.917 48.8134C359.826 46.7912 360.097 36.7342 360.332 33.737Z" fill="#333333"/>
<path d="M286.714 308.337C283.445 308.337 280.324 308.299 277.211 308.344C269.574 308.448 261.945 308.59 254.308 308.717C252.643 308.747 252.546 308.74 252.538 307.06C252.493 302.036 252.531 297.019 252.538 291.995C252.538 290.957 252.568 289.912 252.605 288.875C252.62 288.494 252.591 288.091 252.673 287.732C252.74 287.404 252.919 287.143 253.494 287.143C253.875 287.143 254.031 287.501 254.091 287.755C254.218 288.3 254.24 288.875 254.24 289.434C254.21 295.108 254.166 300.789 254.128 306.463C254.128 306.761 254.128 307.052 254.128 307.344C255.704 307.344 257.264 307.381 258.824 307.336C267.021 307.127 275.218 306.896 283.415 306.672C284.572 306.642 285.729 306.575 286.886 306.545C288.349 306.508 288.357 306.59 288.342 308.06C288.319 310.054 288.424 312.039 288.454 314.033C288.476 315.458 288.461 316.884 288.603 318.333C288.842 317.631 289.043 316.914 289.35 316.25C289.484 315.959 289.82 315.421 290.096 315.533C290.566 315.548 290.522 316.227 290.454 316.511C289.79 319.4 289.081 322.282 288.349 325.156C288.192 325.731 287.849 325.768 287.759 325.798C287.326 325.925 287.02 325.955 286.513 324.954C286.416 324.76 286.266 324.551 286.192 324.327C285.49 322.214 284.781 320.109 284.124 317.982C284.042 317.72 283.9 317.138 284.363 317.063C284.818 316.892 285.102 317.355 285.221 317.616C285.766 318.788 286.214 320.005 286.722 321.259C286.714 316.884 286.714 312.577 286.714 308.337Z" fill="#1A1A1A"/>
</g>
<g clip-path="url(#clip4_634_350285)">
<path d="M576 59.5C579.263 59.5 582.188 60.3052 584.302 62.2783C586.434 64.2691 587.5 67.2222 587.5 71C587.5 74.774 586.439 77.925 584.378 80.1455C582.305 82.3784 579.378 83.5 576 83.5C572.622 83.5 569.695 82.3784 567.622 80.1455C565.561 77.925 564.5 74.774 564.5 71C564.5 67.2222 565.566 64.2691 567.698 62.2783C569.812 60.3052 572.737 59.5 576 59.5Z" fill="white" stroke="#A8DAFF" stroke-width="3"/>
<path d="M576 83.5C580.054 83.5 585.937 83.4927 592.788 87.7236C595.766 89.5625 597.484 91.8638 598.431 94.4062C599.358 96.8964 599.516 99.5439 599.526 102.024C599.537 104.526 597.481 106.5 595.031 106.5H557C554.536 106.5 552.456 104.496 552.528 101.957C552.671 96.9537 553.538 91.49 559.17 87.75C564.795 84.0144 570.388 83.5626 574.388 83.5078L576 83.5Z" fill="white" stroke="#A8DAFF" stroke-width="3"/>
<path d="M572 70.5V71C572 74.1256 573 76 576 76C579 76 580 74.1256 580 71V70.5" stroke="#A8DAFF" stroke-width="3" stroke-linecap="round"/>
<path d="M607 69.5C610.263 69.5 613.188 70.3052 615.302 72.2783C617.434 74.2691 618.5 77.2222 618.5 81C618.5 84.774 617.439 87.925 615.378 90.1455C613.305 92.3784 610.378 93.5 607 93.5C603.622 93.5 600.695 92.3784 598.622 90.1455C596.561 87.925 595.5 84.774 595.5 81C595.5 77.2222 596.566 74.2691 598.698 72.2783C600.812 70.3052 603.737 69.5 607 69.5Z" fill="white" stroke="#FFAFA3" stroke-width="3"/>
<path d="M607 93.5C611.054 93.5 616.937 93.4927 623.788 97.7236C626.766 99.5625 628.484 101.864 629.431 104.406C630.358 106.896 630.516 109.544 630.526 112.024C630.537 114.526 628.481 116.5 626.031 116.5H588C585.536 116.5 583.456 114.496 583.528 111.957C583.671 106.954 584.538 101.49 590.17 97.75C595.795 94.0144 601.388 93.5626 605.388 93.5078L607 93.5Z" fill="white" stroke="#FFAFA3" stroke-width="3"/>
<path d="M603 80.5V81C603 84.1256 604 86 607 86C610 86 611 84.1256 611 81V80.5" stroke="#FFAFA3" stroke-width="3" stroke-linecap="round"/>
<rect x="494" y="147.313" width="16" height="16" rx="3" transform="rotate(-45 494 147.313)" fill="#FFD3A8"/>
<rect x="537.627" y="138.313" width="119" height="6" rx="3" fill="#FFD3A8"/>
<rect x="537.627" y="150.313" width="31.6489" height="6" rx="3" fill="#FFD3A8"/>
<rect x="494" y="190.313" width="16" height="16" rx="3" transform="rotate(-45 494 190.313)" fill="#B3EFBD"/>
<rect x="537.627" y="181.313" width="119" height="6" rx="3" fill="#B3EFBD"/>
<rect x="537.627" y="193.313" width="31.6489" height="6" rx="3" fill="#B3EFBD"/>
<rect x="494" y="234.313" width="16" height="16" rx="3" transform="rotate(-45 494 234.313)" fill="#D3BDFF"/>
<rect x="537.627" y="225.313" width="119" height="6" rx="3" fill="#D3BDFF"/>
<rect x="537.627" y="237.313" width="31.6489" height="6" rx="3" fill="#D3BDFF"/>
<g filter="url(#filter5_dd_634_350285)">
<path d="M488 293C488 288.582 491.582 285 496 285H580C584.418 285 588 288.582 588 293V327C588 331.418 584.418 335 580 335H496C491.582 335 488 331.418 488 327V293Z" fill="#F2FAFF"/>
<path d="M500 310C500 306.686 502.686 304 506 304H570C573.314 304 576 306.686 576 310C576 313.314 573.314 316 570 316H506C502.686 316 500 313.314 500 310Z" fill="black" fill-opacity="0.1"/>
</g>
<g filter="url(#filter6_dd_634_350285)">
<path d="M580 368C580 363.582 583.582 360 588 360H672C676.418 360 680 363.582 680 368V427C680 431.418 676.418 435 672 435H588C583.582 435 580 431.418 580 427V368Z" fill="#FFE5E1"/>
<path d="M592 387.5C592 384.186 594.686 381.5 598 381.5H662C665.314 381.5 668 384.186 668 387.5C668 390.814 665.314 393.5 662 393.5H598C594.686 393.5 592 390.814 592 387.5Z" fill="black" fill-opacity="0.1"/>
<path d="M612 407.5C612 404.186 614.686 401.5 618 401.5H642C645.314 401.5 648 404.186 648 407.5C648 410.814 645.314 413.5 642 413.5H618C614.686 413.5 612 410.814 612 407.5Z" fill="black" fill-opacity="0.1"/>
</g>
<path d="M570.076 375.521C568.222 375.167 566.445 374.82 564.667 374.479C564.313 374.41 564.063 374.361 563.604 374.347C563.264 374.334 562.542 374.32 562.604 374.688C562.688 374.986 562.785 375.188 563.389 375.368C564.951 375.827 566.57 376.049 568.174 376.278C569.59 376.479 570.674 376.611 571.938 376.715C572.528 376.764 572.764 376.472 572.695 375.931C572.632 375.445 572.576 374.945 572.424 374.479C571.882 372.799 571.299 371.139 570.729 369.465C570.66 369.257 570.618 369.09 570.5 368.854C570.354 368.57 570.264 368.354 569.965 368.438C569.681 368.514 569.695 368.931 569.743 369.139C570.111 370.889 570.931 374.486 570.931 374.688C570.021 374.104 569.167 373.584 568.34 373.014C562.604 369.021 557.201 364.653 552.903 359.056C549.5 354.625 546.681 349.868 544.597 344.681C544.472 344.375 544.32 344.077 544.167 343.792C543.965 343.403 543.792 343.236 543.583 343.327C543.215 343.549 543.285 343.847 543.32 344.09C543.382 344.577 543.549 345.056 543.708 345.521C545.91 351.722 549.41 357.153 553.639 362.146C557.979 367.271 563.285 371.215 568.945 374.722C569.25 374.896 569.965 375.396 570.076 375.521Z" fill="#1A1A1A"/>
</g>
<g filter="url(#filter7_dd_634_350285)">
<path d="M814 64C814 55.1634 821.163 48 830 48H968C976.837 48 984 55.1634 984 64V362C984 370.837 976.837 378 968 378H830C821.163 378 814 370.837 814 362V64Z" fill="#666666"/>
<path d="M830 49.5H968C976.008 49.5 982.5 55.9919 982.5 64V362C982.5 370.008 976.008 376.5 968 376.5H830C821.992 376.5 815.5 370.008 815.5 362V64C815.5 55.9919 821.992 49.5 830 49.5Z" stroke="#666666" stroke-width="3"/>
</g>
<path d="M817 39.5H955C963.008 39.5 969.5 45.9919 969.5 54V352C969.5 360.008 963.008 366.5 955 366.5H817C808.992 366.5 802.5 360.008 802.5 352V54C802.5 45.9919 808.992 39.5 817 39.5Z" fill="#F2F2F2"/>
<path d="M817 39.5H955C963.008 39.5 969.5 45.9919 969.5 54V352C969.5 360.008 963.008 366.5 955 366.5H817C808.992 366.5 802.5 360.008 802.5 352V54C802.5 45.9919 808.992 39.5 817 39.5Z" stroke="#666666" stroke-width="3"/>
<path d="M812 141C812 138.791 813.791 137 816 137H876C878.209 137 880 138.791 880 141V212C880 214.209 878.209 216 876 216H816C813.791 216 812 214.209 812 212V141Z" fill="#4D4D4D"/>
<path d="M891 141C891 138.791 892.791 137 895 137H955C957.209 137 959 138.791 959 141V212C959 214.209 957.209 216 955 216H895C892.791 216 891 214.209 891 212V141Z" fill="#4D4D4D"/>
<path d="M812 231C812 228.791 813.791 227 816 227H876C878.209 227 880 228.791 880 231V302C880 304.209 878.209 306 876 306H816C813.791 306 812 304.209 812 302V231Z" fill="#4D4D4D"/>
<path d="M891 231C891 228.791 892.791 227 895 227H955C957.209 227 959 228.791 959 231V302C959 304.209 957.209 306 955 306H895C892.791 306 891 304.209 891 302V231Z" fill="#4D4D4D"/>
<path d="M812 65.5C812 61.9101 814.91 59 818.5 59H884.5C888.09 59 891 61.9101 891 65.5C891 69.0899 888.09 72 884.5 72H818.5C814.91 72 812 69.0899 812 65.5Z" fill="#4D4D4D"/>
<path d="M812 87.5C812 85.567 813.567 84 815.5 84H955.5C957.433 84 959 85.567 959 87.5C959 89.433 957.433 91 955.5 91H815.5C813.567 91 812 89.433 812 87.5Z" fill="#4D4D4D"/>
<path d="M812 100.5C812 98.567 813.567 97 815.5 97H955.5C957.433 97 959 98.567 959 100.5C959 102.433 957.433 104 955.5 104H815.5C813.567 104 812 102.433 812 100.5Z" fill="#4D4D4D"/>
<path d="M812 113.5C812 111.567 813.567 110 815.5 110H913.5C915.433 110 917 111.567 917 113.5C917 115.433 915.433 117 913.5 117H815.5C813.567 117 812 115.433 812 113.5Z" fill="#4D4D4D"/>
<path d="M812 334C812 329.582 815.582 326 820 326H951C955.418 326 959 329.582 959 334V338C959 342.418 955.418 346 951 346H820C815.582 346 812 342.418 812 338V334Z" fill="#4D4D4D"/>
<g clip-path="url(#clip5_634_350285)">
<path d="M756.867 219.969C753.27 219.439 749.687 218.951 746.109 218.349C740.831 217.471 735.554 216.593 730.314 215.572C725.695 214.666 721.106 213.551 716.513 212.499C715.709 212.309 714.904 212.03 714.159 211.664C712.264 210.736 711.687 209.7 712.035 207.637C712.727 203.484 713.446 199.325 714.224 195.182C714.717 192.583 715.727 191.858 718.258 192.511C727.472 194.89 736.669 197.38 745.864 199.831C750.067 200.957 754.282 202.087 758.652 203.257C758.767 202.255 758.959 200.966 759.074 199.683C759.158 198.748 759.531 198.261 760.495 198.711C761.326 199.087 762.311 199.363 762.907 199.995C767.174 204.456 771.37 208.988 775.585 213.499C775.882 213.821 776.124 214.205 776.357 214.574C777.647 216.616 777.398 217.686 775.23 218.636C770.566 220.704 765.859 222.697 761.173 224.708C760.727 224.895 760.238 225.007 759.77 225.136C758.553 225.487 757.728 225.087 757.484 223.809C757.245 222.558 757.083 221.303 756.867 219.969ZM760.985 201.598C760.949 202.635 760.921 203.457 760.892 204.279C760.835 205.54 760.192 206.223 758.925 206.049C757.326 205.825 755.721 205.573 754.177 205.147C744.855 202.598 735.552 199.978 726.24 197.393C722.996 196.498 719.739 195.651 716.477 194.777C715.872 199.464 715.254 204.199 714.62 208.993C719.857 210.116 725.032 211.234 730.21 212.341C738.597 214.142 747.005 215.91 755.379 217.758C758.763 218.511 758.74 218.595 758.882 222.116C758.886 222.194 758.918 222.598 759.121 222.461C764.049 220.311 769.007 218.143 774.064 215.937C769.675 211.124 765.395 206.43 760.985 201.598Z" fill="#333333"/>
</g>
</g>
<defs>
<filter id="filter0_dd_634_350285" x="-7" y="79" width="122" height="122" filterUnits="userSpaceOnUse" color-interpolation-filters="sRGB">
<feFlood flood-opacity="0" result="BackgroundImageFix"/>
<feColorMatrix in="SourceAlpha" type="matrix" values="0 0 0 0 0 0 0 0 0 0 0 0 0 0 0 0 0 0 127 0" result="hardAlpha"/>
<feOffset dy="1"/>
<feGaussianBlur stdDeviation="1.5"/>
<feColorMatrix type="matrix" values="0 0 0 0 0 0 0 0 0 0 0 0 0 0 0 0 0 0 0.3 0"/>
<feBlend mode="normal" in2="BackgroundImageFix" result="effect1_dropShadow_634_350285"/>
<feColorMatrix in="SourceAlpha" type="matrix" values="0 0 0 0 0 0 0 0 0 0 0 0 0 0 0 0 0 0 127 0" result="hardAlpha"/>
<feMorphology radius="3" operator="dilate" in="SourceAlpha" result="effect2_dropShadow_634_350285"/>
<feOffset dy="4"/>
<feGaussianBlur stdDeviation="4"/>
<feColorMatrix type="matrix" values="0 0 0 0 0 0 0 0 0 0 0 0 0 0 0 0 0 0 0.15 0"/>
<feBlend mode="normal" in2="effect1_dropShadow_634_350285" result="effect2_dropShadow_634_350285"/>
<feBlend mode="normal" in="SourceGraphic" in2="effect2_dropShadow_634_350285" result="shape"/>
</filter>
<filter id="filter1_dd_634_350285" x="122" y="248" width="122" height="122" filterUnits="userSpaceOnUse" color-interpolation-filters="sRGB">
<feFlood flood-opacity="0" result="BackgroundImageFix"/>
<feColorMatrix in="SourceAlpha" type="matrix" values="0 0 0 0 0 0 0 0 0 0 0 0 0 0 0 0 0 0 127 0" result="hardAlpha"/>
<feOffset dy="1"/>
<feGaussianBlur stdDeviation="1.5"/>
<feColorMatrix type="matrix" values="0 0 0 0 0 0 0 0 0 0 0 0 0 0 0 0 0 0 0.3 0"/>
<feBlend mode="normal" in2="BackgroundImageFix" result="effect1_dropShadow_634_350285"/>
<feColorMatrix in="SourceAlpha" type="matrix" values="0 0 0 0 0 0 0 0 0 0 0 0 0 0 0 0 0 0 127 0" result="hardAlpha"/>
<feMorphology radius="3" operator="dilate" in="SourceAlpha" result="effect2_dropShadow_634_350285"/>
<feOffset dy="4"/>
<feGaussianBlur stdDeviation="4"/>
<feColorMatrix type="matrix" values="0 0 0 0 0 0 0 0 0 0 0 0 0 0 0 0 0 0 0.15 0"/>
<feBlend mode="normal" in2="effect1_dropShadow_634_350285" result="effect2_dropShadow_634_350285"/>
<feBlend mode="normal" in="SourceGraphic" in2="effect2_dropShadow_634_350285" result="shape"/>
</filter>
<filter id="filter2_dd_634_350285" x="175" y="176" width="122" height="122" filterUnits="userSpaceOnUse" color-interpolation-filters="sRGB">
<feFlood flood-opacity="0" result="BackgroundImageFix"/>
<feColorMatrix in="SourceAlpha" type="matrix" values="0 0 0 0 0 0 0 0 0 0 0 0 0 0 0 0 0 0 127 0" result="hardAlpha"/>
<feOffset dy="1"/>
<feGaussianBlur stdDeviation="1.5"/>
<feColorMatrix type="matrix" values="0 0 0 0 0 0 0 0 0 0 0 0 0 0 0 0 0 0 0.3 0"/>
<feBlend mode="normal" in2="BackgroundImageFix" result="effect1_dropShadow_634_350285"/>
<feColorMatrix in="SourceAlpha" type="matrix" values="0 0 0 0 0 0 0 0 0 0 0 0 0 0 0 0 0 0 127 0" result="hardAlpha"/>
<feMorphology radius="3" operator="dilate" in="SourceAlpha" result="effect2_dropShadow_634_350285"/>
<feOffset dy="4"/>
<feGaussianBlur stdDeviation="4"/>
<feColorMatrix type="matrix" values="0 0 0 0 0 0 0 0 0 0 0 0 0 0 0 0 0 0 0.15 0"/>
<feBlend mode="normal" in2="effect1_dropShadow_634_350285" result="effect2_dropShadow_634_350285"/>
<feBlend mode="normal" in="SourceGraphic" in2="effect2_dropShadow_634_350285" result="shape"/>
</filter>
<filter id="filter3_dd_634_350285" x="290" y="139" width="122" height="122" filterUnits="userSpaceOnUse" color-interpolation-filters="sRGB">
<feFlood flood-opacity="0" result="BackgroundImageFix"/>
<feColorMatrix in="SourceAlpha" type="matrix" values="0 0 0 0 0 0 0 0 0 0 0 0 0 0 0 0 0 0 127 0" result="hardAlpha"/>
<feOffset dy="1"/>
<feGaussianBlur stdDeviation="1.5"/>
<feColorMatrix type="matrix" values="0 0 0 0 0 0 0 0 0 0 0 0 0 0 0 0 0 0 0.3 0"/>
<feBlend mode="normal" in2="BackgroundImageFix" result="effect1_dropShadow_634_350285"/>
<feColorMatrix in="SourceAlpha" type="matrix" values="0 0 0 0 0 0 0 0 0 0 0 0 0 0 0 0 0 0 127 0" result="hardAlpha"/>
<feMorphology radius="3" operator="dilate" in="SourceAlpha" result="effect2_dropShadow_634_350285"/>
<feOffset dy="4"/>
<feGaussianBlur stdDeviation="4"/>
<feColorMatrix type="matrix" values="0 0 0 0 0 0 0 0 0 0 0 0 0 0 0 0 0 0 0.15 0"/>
<feBlend mode="normal" in2="effect1_dropShadow_634_350285" result="effect2_dropShadow_634_350285"/>
<feBlend mode="normal" in="SourceGraphic" in2="effect2_dropShadow_634_350285" result="shape"/>
</filter>
<filter id="filter4_dd_634_350285" x="214" y="323" width="122" height="122" filterUnits="userSpaceOnUse" color-interpolation-filters="sRGB">
<feFlood flood-opacity="0" result="BackgroundImageFix"/>
<feColorMatrix in="SourceAlpha" type="matrix" values="0 0 0 0 0 0 0 0 0 0 0 0 0 0 0 0 0 0 127 0" result="hardAlpha"/>
<feOffset dy="1"/>
<feGaussianBlur stdDeviation="1.5"/>
<feColorMatrix type="matrix" values="0 0 0 0 0 0 0 0 0 0 0 0 0 0 0 0 0 0 0.3 0"/>
<feBlend mode="normal" in2="BackgroundImageFix" result="effect1_dropShadow_634_350285"/>
<feColorMatrix in="SourceAlpha" type="matrix" values="0 0 0 0 0 0 0 0 0 0 0 0 0 0 0 0 0 0 127 0" result="hardAlpha"/>
<feMorphology radius="3" operator="dilate" in="SourceAlpha" result="effect2_dropShadow_634_350285"/>
<feOffset dy="4"/>
<feGaussianBlur stdDeviation="4"/>
<feColorMatrix type="matrix" values="0 0 0 0 0 0 0 0 0 0 0 0 0 0 0 0 0 0 0.15 0"/>
<feBlend mode="normal" in2="effect1_dropShadow_634_350285" result="effect2_dropShadow_634_350285"/>
<feBlend mode="normal" in="SourceGraphic" in2="effect2_dropShadow_634_350285" result="shape"/>
</filter>
<filter id="filter5_dd_634_350285" x="477" y="278" width="122" height="72" filterUnits="userSpaceOnUse" color-interpolation-filters="sRGB">
<feFlood flood-opacity="0" result="BackgroundImageFix"/>
<feColorMatrix in="SourceAlpha" type="matrix" values="0 0 0 0 0 0 0 0 0 0 0 0 0 0 0 0 0 0 127 0" result="hardAlpha"/>
<feOffset dy="1"/>
<feGaussianBlur stdDeviation="1.5"/>
<feColorMatrix type="matrix" values="0 0 0 0 0 0 0 0 0 0 0 0 0 0 0 0 0 0 0.3 0"/>
<feBlend mode="normal" in2="BackgroundImageFix" result="effect1_dropShadow_634_350285"/>
<feColorMatrix in="SourceAlpha" type="matrix" values="0 0 0 0 0 0 0 0 0 0 0 0 0 0 0 0 0 0 127 0" result="hardAlpha"/>
<feMorphology radius="3" operator="dilate" in="SourceAlpha" result="effect2_dropShadow_634_350285"/>
<feOffset dy="4"/>
<feGaussianBlur stdDeviation="4"/>
<feColorMatrix type="matrix" values="0 0 0 0 0 0 0 0 0 0 0 0 0 0 0 0 0 0 0.15 0"/>
<feBlend mode="normal" in2="effect1_dropShadow_634_350285" result="effect2_dropShadow_634_350285"/>
<feBlend mode="normal" in="SourceGraphic" in2="effect2_dropShadow_634_350285" result="shape"/>
</filter>
<filter id="filter6_dd_634_350285" x="569" y="353" width="122" height="97" filterUnits="userSpaceOnUse" color-interpolation-filters="sRGB">
<feFlood flood-opacity="0" result="BackgroundImageFix"/>
<feColorMatrix in="SourceAlpha" type="matrix" values="0 0 0 0 0 0 0 0 0 0 0 0 0 0 0 0 0 0 127 0" result="hardAlpha"/>
<feOffset dy="1"/>
<feGaussianBlur stdDeviation="1.5"/>
<feColorMatrix type="matrix" values="0 0 0 0 0 0 0 0 0 0 0 0 0 0 0 0 0 0 0.3 0"/>
<feBlend mode="normal" in2="BackgroundImageFix" result="effect1_dropShadow_634_350285"/>
<feColorMatrix in="SourceAlpha" type="matrix" values="0 0 0 0 0 0 0 0 0 0 0 0 0 0 0 0 0 0 127 0" result="hardAlpha"/>
<feMorphology radius="3" operator="dilate" in="SourceAlpha" result="effect2_dropShadow_634_350285"/>
<feOffset dy="4"/>
<feGaussianBlur stdDeviation="4"/>
<feColorMatrix type="matrix" values="0 0 0 0 0 0 0 0 0 0 0 0 0 0 0 0 0 0 0.15 0"/>
<feBlend mode="normal" in2="effect1_dropShadow_634_350285" result="effect2_dropShadow_634_350285"/>
<feBlend mode="normal" in="SourceGraphic" in2="effect2_dropShadow_634_350285" result="shape"/>
</filter>
<filter id="filter7_dd_634_350285" x="796" y="38" width="206" height="366" filterUnits="userSpaceOnUse" color-interpolation-filters="sRGB">
<feFlood flood-opacity="0" result="BackgroundImageFix"/>
<feColorMatrix in="SourceAlpha" type="matrix" values="0 0 0 0 0 0 0 0 0 0 0 0 0 0 0 0 0 0 127 0" result="hardAlpha"/>
<feOffset dy="4"/>
<feGaussianBlur stdDeviation="2"/>
<feColorMatrix type="matrix" values="0 0 0 0 0 0 0 0 0 0 0 0 0 0 0 0 0 0 0.3 0"/>
<feBlend mode="normal" in2="BackgroundImageFix" result="effect1_dropShadow_634_350285"/>
<feColorMatrix in="SourceAlpha" type="matrix" values="0 0 0 0 0 0 0 0 0 0 0 0 0 0 0 0 0 0 127 0" result="hardAlpha"/>
<feMorphology radius="6" operator="dilate" in="SourceAlpha" result="effect2_dropShadow_634_350285"/>
<feOffset dy="8"/>
<feGaussianBlur stdDeviation="6"/>
<feColorMatrix type="matrix" values="0 0 0 0 0 0 0 0 0 0 0 0 0 0 0 0 0 0 0.15 0"/>
<feBlend mode="normal" in2="effect1_dropShadow_634_350285" result="effect2_dropShadow_634_350285"/>
<feBlend mode="normal" in="SourceGraphic" in2="effect2_dropShadow_634_350285" result="shape"/>
</filter>
<clipPath id="clip0_634_350285">
<path d="M0 24C0 10.7452 10.7452 0 24 0H1008C1021.25 0 1032 10.7452 1032 24V390C1032 403.255 1021.25 414 1008 414H24C10.7452 414 0 403.255 0 390V24Z" fill="white"/>
</clipPath>
<clipPath id="clip1_634_350285">
<rect width="143" height="414" fill="white"/>
</clipPath>
<clipPath id="clip2_634_350285">
<rect width="105.2" height="105.2" fill="white" transform="matrix(0.5 -0.866025 -0.866025 -0.5 95.457 332.058)"/>
</clipPath>
<clipPath id="clip3_634_350285">
<rect width="336" height="414" fill="white" transform="translate(143)"/>
</clipPath>
<clipPath id="clip4_634_350285">
<rect width="222" height="414" fill="white" transform="translate(479)"/>
</clipPath>
<clipPath id="clip5_634_350285">
<rect width="71" height="71" fill="white" transform="translate(701 231.581) rotate(-75)"/>
</clipPath>
</defs>
</svg>
