<svg width="113" height="102" viewBox="0 0 113 102" fill="none" xmlns="http://www.w3.org/2000/svg">
<path d="M62.1966 82.6501C61.16 83.9707 60.4312 85.3426 59.6501 86.7686C59.1819 87.616 58.4039 88.8539 59.3534 89.8028C59.7707 90.2125 61.1463 90.606 62.0079 90.4286C70.8372 88.6511 79.6689 86.8328 88.4672 84.8897C90.855 84.3703 91.5198 83.1092 90.2343 80.8063C87.7575 76.4028 85.106 72.046 82.1113 67.9549C79.639 64.5663 76.7145 61.4859 73.751 58.5096C72.2693 57.0215 72.2693 57.0215 71.2105 57.2116C70.6002 57.4286 70.2528 59.1261 70.2099 60.1136C70.1279 61.7534 70.0398 63.2209 70.1687 65.2989C59.8096 60.1194 51.2347 54.1142 46.5299 43.3418C45.8392 41.762 45.4278 40.0272 45.0797 38.3289C43.7183 31.7011 46.292 26.0378 49.8112 20.7095C50.8193 19.1825 50.7673 18.1402 49.5904 16.8913C45.4506 12.5188 41.3973 8.06971 37.2143 3.73554C35.2119 1.65154 33.7029 1.70826 31.6882 3.91936C16.1573 21.1033 14.6318 44.2011 29.8421 62.8947C35.4274 69.7678 42.8881 74.1596 50.7756 77.8488C54.6253 79.6918 58.1558 80.992 62.1966 82.6501ZM62.4356 86.9848C63.0675 86 63.5399 85.2182 64.0664 84.4889C65.8445 81.9935 65.6246 81.023 62.8693 79.622C62.4082 79.398 61.9446 79.2147 61.4743 79.0064C53.9469 75.8626 46.7507 72.1085 40.0981 67.3397C25.962 57.1959 18.4891 37.7393 25.3841 20.6097C27.5465 15.2572 30.3233 10.3016 34.2869 5.88368C38.594 10.3317 42.8244 14.6932 47.1248 19.1163C46.7462 19.699 46.4016 20.2593 46.0187 20.7764C39.3838 29.3462 39.1867 38.4906 44.1135 47.7463C49.2379 57.3901 57.6698 63.4604 67.439 67.8353C68.4993 68.2998 69.6261 68.613 70.7395 68.8762C73.1202 69.4282 73.4077 68.4554 73.3615 66.6361C73.3386 65.6528 73.0453 63.8596 73.0067 62.8672C78.7402 68.4972 83.8539 75.4566 87.6138 82.2037C79.2452 83.8043 71.0013 85.3715 62.4356 86.9848Z" fill="#1A1A1A"/>
</svg>
