<svg width="39" height="39" viewBox="0 0 39 39" fill="none" xmlns="http://www.w3.org/2000/svg">
<path d="M34.7143 21.3365C31.4445 21.3365 28.324 21.2992 25.211 21.344C17.574 21.4485 9.94452 21.5903 2.30754 21.7172C0.642788 21.7471 0.545739 21.7396 0.538274 20.0599C0.493482 15.0358 0.530809 10.0191 0.538274 4.99501C0.538274 3.95733 0.568135 2.9122 0.605462 1.87452C0.620392 1.49379 0.590531 1.09067 0.672649 0.732335C0.739837 0.403863 0.919003 0.142578 1.49383 0.142578C1.87456 0.142578 2.03133 0.500912 2.09105 0.754731C2.21796 1.2997 2.24036 1.87452 2.24036 2.43442C2.2105 8.10803 2.1657 13.7891 2.12838 19.4627C2.12838 19.7613 2.12838 20.0525 2.12838 20.3436C3.70355 20.3436 5.26379 20.3809 6.82404 20.3362C15.0209 20.1271 23.2178 19.8957 31.4147 19.6717C32.5718 19.6419 33.7289 19.5747 34.886 19.5448C36.3492 19.5075 36.3567 19.5896 36.3417 21.0603C36.3194 23.0535 36.4239 25.0393 36.4537 27.0325C36.4761 28.4584 36.4612 29.8842 36.603 31.3325C36.8419 30.6308 37.0435 29.9141 37.3496 29.2497C37.4839 28.9585 37.8199 28.4211 38.0961 28.533C38.5664 28.548 38.5216 29.2273 38.4544 29.511C37.79 32.4 37.0808 35.2816 36.3492 38.1558C36.1924 38.7306 35.849 38.7679 35.7595 38.7978C35.3265 38.9247 35.0204 38.9546 34.5128 37.9542C34.4157 37.7601 34.2664 37.5511 34.1917 37.3271C33.49 35.2145 32.7808 33.1092 32.1239 30.9816C32.0417 30.7204 31.8999 30.1381 32.3628 30.0634C32.8181 29.8917 33.1018 30.3546 33.2213 30.6158C33.7662 31.7879 34.2141 33.0047 34.7218 34.2589C34.7143 29.8842 34.7143 25.5768 34.7143 21.3365Z" fill="#1A1A1A"/>
</svg>
