<svg width="60" height="46" viewBox="0 0 60 46" fill="none" xmlns="http://www.w3.org/2000/svg">
<path d="M43.2782 5.54442C42.356 4.26664 41.4116 3.03331 40.5671 1.74442C40.2782 1.31108 39.756 0.688861 40.0782 0.199973C40.3338 -0.055583 41.0449 0.0888615 41.5116 0.155528C46.9004 0.933306 52.1449 2.26664 57.0782 4.63331C59.4004 5.74442 59.656 6.2222 59.0893 8.6222C57.9004 13.6889 56.0671 18.4778 53.5449 23C53.4338 23.1889 52.5893 24.4111 52.2004 24C51.3449 22.1889 50.5338 20.4778 49.6893 18.6778C48.7338 19.2444 47.8338 19.7778 46.9338 20.3111C36.956 26.2111 27.1338 32.3555 18.3116 39.9444C16.2338 41.7333 14.1671 43.5333 12.0893 45.3222C11.0671 46.2111 10.6227 46.2 9.78934 44.9778C8.36712 42.9 6.97823 40.7889 5.68934 38.6333C4.07823 35.9444 2.58934 33.1778 1.05601 30.4444C0.378229 29.2444 0.478229 28.2444 1.57823 27.2889C9.63378 20.2666 18.2782 14.1778 28.4116 10.5111C33.2782 8.74442 38.2116 7.2222 43.2782 5.54442ZM43.0782 2.29997C43.9449 3.1222 44.8449 3.9222 45.6449 4.79997C46.3449 5.55553 46.1338 6.47775 45.1671 6.84442C44.056 7.26664 42.956 7.73331 41.8227 8.1222C28.4449 12.7111 15.8116 18.7222 4.81156 27.8C4.38934 28.1555 3.9449 28.4889 3.67823 28.7C6.27823 33.6222 8.78934 38.3666 11.2893 43.0889C13.6227 40.9666 15.8227 38.8666 18.1227 36.8555C27.6782 28.5111 38.5004 22.1111 49.8004 16.4444C50.756 15.9666 51.3671 16.2889 51.7116 17.1444C52.1893 18.3111 53.1227 20.8889 53.1227 20.8889C54.8338 16.3 56.6004 11.5666 58.3338 6.93331C58.356 6.86664 58.3227 6.77775 58.256 6.74442C53.2004 4.55553 48.3449 2.94442 43.1227 2.21108C43.0782 2.21108 43.056 2.26664 43.0782 2.29997Z" fill="#1A1A1A"/>
</svg>
