<svg width="72" height="44" viewBox="0 0 72 44" fill="none" xmlns="http://www.w3.org/2000/svg">
<path d="M47.8666 33.9685C44.2695 33.4386 40.6867 32.9508 37.1088 32.3494C31.8313 31.4712 26.5537 30.5931 21.3145 29.5721C16.6952 28.6661 12.1063 27.5514 7.51342 26.4994C6.70932 26.3095 5.90373 26.0298 5.15938 25.6644C3.26439 24.7356 2.68679 23.7003 3.03545 21.6371C3.72725 17.4836 4.44604 13.3246 5.22437 9.18161C5.71659 6.5826 6.72745 5.85807 9.25798 6.51061C18.472 8.89018 27.6693 11.3801 36.8642 13.8311C41.0671 14.9573 45.282 16.0867 49.6516 17.2575C49.7672 16.2548 49.9593 14.9663 50.0736 13.6826C50.1581 12.7481 50.531 12.261 51.4952 12.7108C52.3261 13.0866 53.3112 13.3633 53.9075 13.9952C58.1739 18.4563 62.3704 22.988 66.5852 27.4991C66.8818 27.821 67.1235 28.2048 67.3565 28.5735C68.6467 30.6165 68.3985 31.6857 66.2297 32.6359C61.5664 34.7043 56.8595 36.6972 52.1732 38.7084C51.7275 38.8952 51.2383 39.0066 50.7696 39.1363C49.5528 39.4866 48.7283 39.087 48.4837 37.8091C48.2446 36.5583 48.0833 35.3027 47.8666 33.9685ZM51.9849 15.5984C51.9495 16.6354 51.9207 17.4571 51.8919 18.2789C51.8348 19.5397 51.1925 20.2226 49.9246 20.0488C48.3257 19.8245 46.7213 19.5733 45.1767 19.1467C35.8549 16.5978 26.5522 13.9776 17.2399 11.393C13.9958 10.4983 10.739 9.65112 7.47668 8.77697C6.87159 13.4641 6.25373 18.1989 5.61993 22.9931C10.8575 24.1158 16.0323 25.2344 21.2103 26.3411C29.5969 28.1416 38.005 29.9096 46.3788 31.7578C49.7628 32.5114 49.7405 32.5948 49.8816 36.1164C49.8862 36.1942 49.9183 36.5984 50.1209 36.4613C55.0488 34.3106 60.0068 32.1425 65.0641 29.9373C60.675 25.1243 56.3946 20.4297 51.9849 15.5984Z" fill="#333333"/>
</svg>
