<svg width="30" height="34" viewBox="0 0 30 34" fill="none" xmlns="http://www.w3.org/2000/svg">
<path d="M27.076 32.5205C25.2218 32.1664 23.444 31.8191 21.6662 31.4789C21.3121 31.4094 21.0621 31.3608 20.6037 31.3469C20.2635 31.333 19.5412 31.3191 19.6037 31.6872C19.6871 31.9858 19.7843 32.1872 20.3885 32.3678C21.951 32.8261 23.569 33.0483 25.1732 33.2775C26.5899 33.4789 27.6732 33.6108 28.9371 33.715C29.5274 33.7636 29.7635 33.4719 29.694 32.9303C29.6315 32.4441 29.576 31.9441 29.4232 31.4789C28.8815 29.7983 28.2982 28.1386 27.7287 26.465C27.6593 26.2566 27.6176 26.09 27.4996 25.8539C27.3537 25.5691 27.2635 25.3539 26.9649 25.4372C26.6801 25.5136 26.694 25.9303 26.7426 26.1386C27.1107 27.8886 27.9301 31.4858 27.9301 31.6872C27.0204 31.1039 26.1662 30.583 25.3399 30.0136C19.6037 26.0205 14.201 21.6525 9.90235 16.0553C6.49957 11.6247 3.68013 6.86775 1.5968 1.68025C1.4718 1.37469 1.31902 1.07608 1.16624 0.791359C0.964853 0.40247 0.791242 0.235802 0.582908 0.32608C0.214853 0.548302 0.284297 0.846916 0.319019 1.08997C0.381519 1.57608 0.548186 2.05525 0.707908 2.52052C2.9093 8.72191 6.4093 14.1525 10.6385 19.1455C14.9787 24.2705 20.2843 28.215 25.944 31.7219C26.2496 31.8955 26.9649 32.3955 27.076 32.5205Z" fill="#1A1A1A"/>
</svg>
