<svg width="64" height="64" viewBox="0 0 64 64" fill="none" xmlns="http://www.w3.org/2000/svg">
<path d="M32 8.5C35.2633 8.5 38.1882 9.30519 40.3018 11.2783C42.4342 13.2691 43.5 16.2222 43.5 20C43.5 23.774 42.4391 26.925 40.3779 29.1455C38.305 31.3784 35.3777 32.5 32 32.5C28.6223 32.5 25.695 31.3784 23.6221 29.1455C21.5609 26.925 20.5 23.774 20.5 20C20.5 16.2222 21.5658 13.2691 23.6982 11.2783C25.8118 9.30519 28.7367 8.5 32 8.5Z" fill="white" stroke="#A8DAFF" stroke-width="3"/>
<path d="M32 32.5C36.054 32.5 41.9371 32.4927 48.7881 36.7236C51.7656 38.5625 53.4839 40.8638 54.4307 43.4062C55.3579 45.8964 55.5157 48.5439 55.5264 51.0244C55.5371 53.5256 53.4809 55.5 51.0312 55.5H13C10.5363 55.5 8.45569 53.4959 8.52832 50.957C8.67147 45.9537 9.53841 40.49 15.1699 36.75C20.7949 33.0144 26.3876 32.5626 30.3877 32.5078L32 32.5Z" fill="white" stroke="#A8DAFF" stroke-width="3"/>
<path d="M28 19.5V20C28 23.1256 29 25 32 25C35 25 36 23.1256 36 20V19.5" stroke="#A8DAFF" stroke-width="3" stroke-linecap="round"/>
</svg>
