<svg width="111" height="111" viewBox="0 0 111 111" fill="none" xmlns="http://www.w3.org/2000/svg">
<path d="M95.3865 37.4446C95.787 37.5166 96.1443 37.7401 96.3843 38.0687C96.6242 38.3974 96.7284 38.8058 96.6751 39.2092C96.5664 39.806 96.2609 40.3491 95.8075 40.7521C95.2814 41.2509 94.717 41.7078 94.1195 42.1185C93.4464 42.6264 92.4669 43.3606 91.7365 43.789C90.8532 44.3074 85.731 47.0526 84.9682 47.3848C83.8358 47.8782 80.8078 48.9025 80.2342 49.0726C79.8307 49.1807 79.4272 49.2888 78.984 49.4076C79.6344 51.0156 78.8708 52.2129 78.1325 53.0889C77.4687 53.8761 76.5298 54.2849 75.6203 54.7907C74.0023 55.6773 72.3201 56.4412 70.5878 57.0762C65.2397 59.1251 59.6385 60.2295 54.14 61.7782C52.9589 62.1143 51.7526 62.3687 50.5543 62.6407C47.7463 63.2795 44.9397 63.907 42.1345 64.5233C41.3207 64.702 34.5919 65.853 33.8255 65.9273C32.8867 66.0184 28.988 66.434 28.0533 66.4912C26.8472 66.5752 23.2004 66.7202 22.6086 66.7248C22.0168 66.7293 21.3706 66.6895 20.7533 66.6846C20.2435 66.677 18.0615 66.6032 17.4845 66.5776C17.1019 66.5556 16.7211 66.5528 16.3385 66.5309C15.309 66.4791 14.2729 66.4029 13.243 66.325C13.1301 66.3192 12.8799 66.2782 12.6436 66.2399C12.4531 66.2133 12.2762 66.126 12.1391 65.9911C12.0021 65.8561 11.9121 65.6806 11.8826 65.4905C11.7688 64.6626 13.027 64.5286 13.1925 64.5104C13.7101 64.501 14.2278 64.5288 14.7414 64.5934C15.0758 64.6185 15.3757 64.6986 15.6929 64.7086C16.8957 64.7467 18.1019 64.761 19.3199 64.795C20.2354 64.8249 27.785 64.5973 28.5821 64.5279C29.3793 64.4584 37.4961 63.4499 38.7903 63.2669C38.9064 63.2358 39.0253 63.2269 39.1422 63.1988C42.9099 62.3432 46.6991 61.5802 50.4494 60.6474C56.1831 59.2224 61.9081 57.7365 67.6244 56.1895C72.9435 54.3744 75.9807 52.5777 76.8107 51.8606C77.2525 51.5653 77.8335 50.2368 77.1112 50.1944L76.3256 50.4049C73.4737 51.1691 70.6419 52.0327 67.7554 52.6555C66.2065 52.9886 64.5537 52.9335 63.1516 51.8578C62.223 51.1434 61.9673 50.0915 61.9888 49.0832C62.0078 47.9315 62.7667 47.0958 63.9251 46.7363C67.2325 45.7157 68.7113 45.7814 69.5755 45.8153C70.5309 45.8252 71.4839 45.9139 72.4247 46.0805C73.4787 46.305 74.5151 46.6054 75.5257 46.9794C76.1204 47.1936 76.6521 47.5884 77.2301 47.8627C77.4222 47.9315 77.6315 47.9353 77.826 47.8734C78.8726 47.5733 79.9208 47.2793 80.9535 46.9273C81.719 46.6665 82.4676 46.3545 83.2169 46.0456C83.807 45.8023 84.7703 45.3869 85.3524 45.1261C85.9344 44.8653 86.5243 44.609 87.077 44.3364C87.9432 43.9012 88.8094 43.4659 89.6459 42.9928C90.5833 42.4566 91.5183 41.9112 92.3968 41.2892C93.1478 40.7258 93.8689 40.1236 94.5572 39.4851C94.6049 39.4428 94.6435 39.3912 94.6706 39.3335C94.7956 39.0987 94.8233 38.8241 94.7476 38.5692C94.6723 38.4002 94.6479 38.213 94.6776 38.0304C94.7073 37.8479 94.7896 37.678 94.9145 37.5416C94.9793 37.4882 95.0562 37.4515 95.1385 37.4346C95.2207 37.4177 95.3059 37.4211 95.3865 37.4446ZM74.9563 48.816C74.7038 48.6865 74.4443 48.5712 74.1791 48.4706C73.2885 48.1915 69.9759 47.5787 69.2456 47.604C68.2359 47.6294 67.2312 47.7538 66.2458 47.9753C65.7421 48.0693 65.2465 48.2021 64.7633 48.3726C64.4368 48.5075 64.1764 48.7653 64.038 49.0903C63.8996 49.4154 63.8944 49.7817 64.0234 50.1106C64.1873 50.5024 64.4745 50.645 65.0883 50.8081C65.9091 50.9985 66.7613 51.0093 67.5866 50.8398C69.8752 50.3085 74.6886 48.9172 74.9522 48.8007L74.9563 48.816Z" fill="#1A1A1A"/>
</svg>
