<svg width="56" height="54" viewBox="0 0 56 54" fill="none" xmlns="http://www.w3.org/2000/svg">
<path d="M26.501 26.259C26.7176 25.3923 26.844 24.6881 27.0788 24.002C29.426 17.0687 33.1996 10.8937 37.4968 5.02564C38.0024 4.33952 38.6343 3.68952 39.3385 3.25619C39.7176 3.02147 40.476 3.05758 40.9093 3.2923C41.2343 3.47286 41.469 4.17702 41.3968 4.57425C41.2704 5.33258 40.9996 6.10897 40.6204 6.79508C38.1288 11.327 35.619 15.8409 33.0732 20.3368C32.1163 22.0159 31.1051 23.677 30.1121 25.3381C29.7871 25.8979 29.426 26.4395 29.0468 26.9451C28.6315 27.5229 27.9996 27.8659 27.3676 27.4867C26.9524 27.234 26.501 27.0534 26.501 26.259Z" fill="#333333"/>
<path d="M52.0674 53.1441C51.2007 52.9997 50.1896 52.8913 49.2146 52.6747C45.3688 51.808 41.5229 50.9413 37.6951 50.0385C36.8646 49.8399 36.0521 49.4969 35.3118 49.0997C34.3188 48.576 33.9757 47.8358 34.1382 47.0233C34.3007 46.2108 34.9507 45.7052 36.0882 45.6872C36.8646 45.6691 37.6951 45.6872 38.4354 45.8677C43.2924 47.0955 48.1493 48.3594 52.9882 49.6413C53.5299 49.7858 54.0896 50.0385 54.5049 50.3997C55.5521 51.2844 55.2271 52.6747 53.891 53.0177C53.3674 53.1441 52.7715 53.0899 52.0674 53.1441Z" fill="#333333"/>
<path d="M1.33151 4.737C1.40373 3.88839 1.58429 3.03978 1.80095 2.20923C1.99957 1.46895 2.50512 0.945338 3.31762 0.873116C4.00373 0.818949 4.74401 1.50506 4.85234 2.40784C4.99679 3.61756 5.12318 4.84534 5.06901 6.05506C4.90651 9.70228 4.67179 13.3676 4.41901 17.0148C4.32873 18.2245 4.16623 19.4342 3.96762 20.644C3.8954 21.0592 3.75095 21.4926 3.51623 21.8176C2.88429 22.7384 1.72873 22.6662 1.27734 21.6731C1.02457 21.1134 0.916234 20.4273 0.916234 19.8134C0.825956 17.7912 1.09679 7.73423 1.33151 4.737Z" fill="#333333"/>
</svg>
